<?xml version="1.0" encoding="UTF-8" standalone="no"?>
<!-- Created with Inkscape (http://www.inkscape.org/) -->

<svg
   version="1.1"
   id="svg1"
   width="506.97235"
   height="465.23154"
   viewBox="0 0 506.97235 465.23154"
   xmlns="http://www.w3.org/2000/svg"
   xmlns:svg="http://www.w3.org/2000/svg">
  <defs
     id="defs1" />
  <g
     id="g1"
     transform="translate(-3.4787486,-11.889154)">
    <path
       id="path38"
       style="fill:#ee7868;fill-opacity:1"
       d="m 392.46289,140.49805 c -0.199,1.09183 -0.33745,2.20354 -0.9397,3.16305 -0.39974,0.59354 -0.47559,1.25717 -0.38782,1.95431 0.0945,1.96305 0.0238,3.94221 0.22127,5.89524 0.66013,3.79587 1.24896,7.60793 1.95305,11.39381 1.22315,4.03024 2.34618,8.09412 3.63267,12.10306 1.22107,3.33958 2.53546,6.66231 3.69826,10.0124 10e-4,1.05761 0.0939,2.12816 -0.33366,3.12494 -0.16474,0.58445 -1.12574,1.38129 -1.71042,1.703 -0.55627,0.4425 -0.10683,0.99066 -0.902,0.92833 -10.76119,1.56443 -21.47158,3.45039 -32.20454,5.19427 -19.69224,3.25544 -39.3898,6.47744 -59.06269,9.84811 -26.18278,4.43629 -52.36578,8.87121 -78.5484,13.30838 9.20081,5.87231 18.40246,11.7433 27.60351,17.61524 77.45504,-12.45793 154.91012,-24.91559 232.36524,-37.37305 -31.60891,-20.60063 -63.21815,-41.20075 -94.82618,-61.80273 -0.18619,0.97721 -0.37239,1.95442 -0.55859,2.93164 z" />
    <g
       id="g2"
       transform="translate(32.58348,-16.29174)">
      <path
         id="path35"
         style="fill:#f9f5f2;fill-opacity:1"
         d="m 349.53516,135.75977 c -4.04961,0.46001 -8.07054,1.17388 -12.10422,1.76483 -24.81154,3.85152 -49.59219,7.91042 -74.39383,11.82892 -22.03081,3.45366 -44.10011,6.66763 -66.11635,10.20849 -7.01724,1.12566 -14.01381,2.38153 -20.95782,3.89817 -7.44013,1.55099 -14.88018,3.10234 -22.32036,4.6531 -0.94284,2.43925 -2.28482,4.77673 -2.55749,7.4209 -0.67693,5.44234 -0.63649,10.9413 -0.72294,16.41646 -0.0613,10.35072 -0.097,20.70818 0.33216,31.05189 0.11427,1.40142 0.005,2.90453 0.69054,4.17363 0.25586,1.27054 1.15486,2.60301 2.5688,2.63671 3.66977,-0.43687 7.31885,-1.11938 10.9775,-1.67114 43.03071,-6.95997 86.02861,-14.09848 129.03202,-21.22991 18.88843,-3.16817 37.79292,-6.24626 56.65792,-9.54854 0.63806,-0.13523 1.27606,-0.27076 1.91407,-0.40625 0.17841,-0.94723 0.51362,-1.92506 0.0802,-2.85574 -1.28154,-3.48187 -2.44695,-7.01017 -3.26679,-10.63267 -1.33541,-5.51475 -2.2957,-11.30936 -2.63962,-16.8651 -0.085,-1.45377 -0.14389,-2.8552 -0.1471,-4.3668 -0.0197,-6.12514 0.69437,-12.30768 2.61779,-18.14076 0.67828,-2.03174 1.7546,-3.91322 2.38501,-5.95732 0.0518,-0.79441 -0.15758,-1.60817 -0.20726,-2.41012 -0.60742,0.0104 -1.21484,0.0208 -1.82226,0.0312 z m 109.30468,91.66601 c -7.08747,1.01847 -14.12737,2.33601 -21.19128,3.50633 -35.45595,6.07356 -70.92231,12.0315 -106.46331,17.60854 -37.66925,5.95598 -75.33785,11.91613 -113.00752,17.86951 -1.19187,1.20781 -2.341,2.45936 -3.65458,3.5333 -2.38831,2.31947 -2.81768,5.81459 -3.06806,8.96896 -0.41544,6.98483 -0.13326,13.98713 -0.0903,20.97871 0.18619,10.96434 0.16043,21.93544 0.62941,32.89251 0.19599,2.76323 0.18484,5.59918 1.02537,8.26324 0.67379,1.61355 2.23037,2.7388 3.83008,3.33398 1.97835,0.7345 4.03497,-0.10455 6.02072,-0.35393 33.22216,-5.88744 66.52134,-11.43374 99.85405,-16.70682 43.81202,-6.98411 87.63102,-13.83623 131.54612,-20.14235 2.60248,-0.42578 5.24611,-0.67158 7.80177,-1.33792 1.15348,-0.31267 2.05933,-1.54286 1.66743,-2.73468 -0.16096,-0.55885 -0.59418,-1.00158 -0.61322,-1.61956 -1.40765,-5.94348 -2.88869,-11.87207 -4.07765,-17.86451 -0.16716,-0.93719 -0.41111,-2.14117 -0.57758,-3.18822 -1.62966,-9.29355 -1.8208,-18.78325 -1.32128,-28.18689 0.24846,-4.51989 1.06822,-8.99947 2.24069,-13.35804 0.71688,-3.01796 1.6046,-6.01923 1.92575,-9.11255 0.0865,-0.9051 -0.48024,-1.62855 -0.91407,-2.36328 -0.52026,0.01 -1.04369,-0.0191 -1.5625,0.0137 z M -10.689453,349.32617 c -0.517299,0.10499 -1.241353,0.22845 -1.491586,0.73609 -0.823211,1.45137 -0.664327,3.20395 -0.775724,4.81351 -0.07255,2.67324 0.298237,5.34045 1.055632,7.90368 2.7709427,11.20251 4.5318905,22.78772 3.7440198,34.34947 -0.5512308,6.79639 -2.1664048,13.44081 -3.3387228,20.14346 -0.789321,4.18092 -1.302685,8.43044 -2.620826,12.49299 -0.624661,2.21575 -1.519866,4.35493 -2.047402,6.59596 -0.111452,0.71436 0.281342,1.35272 0.460937,2.02344 3.157241,0.76521 6.4009675,1.09384 9.5986343,1.65161 39.5604247,6.14537 79.0810347,12.61898 118.4906007,19.77188 33.52956,6.05228 67.03097,12.37244 100.53193,18.63545 5.67787,1.02408 11.3361,2.1772 17.04485,3.01527 2.18324,0.18836 4.54454,-0.8744 5.45858,-2.94841 0.86193,-1.91028 1.33302,-3.99582 1.37994,-6.09243 0.43056,-9.9427 0.38039,-19.89955 0.36464,-29.84975 -0.0925,-10.55776 -0.12284,-21.11887 -0.46442,-31.67194 -0.18608,-3.4682 -0.17933,-7.01032 -1.16008,-10.36981 -0.71255,-1.91697 -1.80205,-3.67147 -2.79099,-5.45539 -0.78136,-1.3522 -1.8036,-2.78145 -3.44863,-3.07793 -4.34875,-1.04455 -8.791,-1.63794 -13.19424,-2.4042 -31.23106,-5.0775 -62.40313,-10.42965 -93.54118,-15.99954 C 82.995856,366.5421 43.475799,359.3303 3.9975984,351.81793 c -4.67248219,-0.8338 -9.3152331,-1.86272 -14.0210364,-2.49176 -0.221839,0.003 -0.445934,-0.0368 -0.666015,0 z" />
      <path
         style="fill:#cccccc;fill-opacity:1"
         d="m 229.13412,495.84237 c 0.72187,-0.28887 1.58438,-0.25335 1.91667,0.0789 0.33229,0.33229 -0.25834,0.56864 -1.3125,0.52522 -1.16495,-0.048 -1.4019,-0.28494 -0.60417,-0.60416 z"
         id="path33" />
      <path
         id="path18"
         style="fill:#ffcb52;fill-opacity:1"
         d="m 415.29102,325.44922 c -5.88661,0 -11.65443,1.67044 -17.47779,2.52925 -29.99934,4.61777 -59.98047,9.35496 -89.93339,14.26066 -4.27788,0.74218 -8.58191,1.35875 -12.82906,2.26282 -2.3374,1.2531 -4.42411,2.92122 -6.61126,4.41291 -14.30632,10.19191 -28.3936,20.68489 -42.71908,30.85093 -1.12886,0.83133 -2.34741,1.54664 -3.47044,2.37483 -1.21189,1.12641 -0.86422,3.00039 -0.0982,4.27998 1.67921,2.85468 3.76835,5.50063 4.93409,8.63403 1.66416,4.42708 1.84337,9.22044 2.12423,13.89141 0.0922,1.59904 0.13647,3.18812 0.20393,4.84498 0.36123,12.61115 0.55073,25.38037 0.82723,38.05248 0.10901,5.37639 0.21687,10.7528 0.32707,16.12916 3.72713,-2.59077 7.45219,-5.18373 11.23377,-7.69355 16.35258,-11.33836 32.56047,-22.88357 48.83699,-34.33152 25.95659,-18.29451 51.94809,-36.54065 77.69699,-55.12697 8.11842,-5.8901 16.28317,-11.71996 24.273,-17.78433 2.15301,-1.63557 4.33835,-3.73393 4.85941,-6.46801 0.741,-3.78383 0.87651,-7.74498 0.61038,-11.58002 0.0363,-2.40167 0.81838,-4.83545 0.4186,-7.21873 -0.20673,-1.3048 -1.33736,-2.32031 -2.72649,-2.32031 z" />
      <path
         id="path14"
         style="fill:#eb5a47;fill-opacity:1"
         d="m 32.709297,166.39156 c -3.348842,-2.3074 -2.226755,1.26502 -2.189742,2.5168 -1.05133,9.2739 -0.514436,18.62158 -0.429983,27.9289 0.148661,7.42346 0.09013,14.85065 0.293857,22.27258 0.137872,2.03527 0.09028,4.28298 1.320407,6.01454 1.65749,1.54528 3.145215,3.67564 4.974032,5.00478 14.476692,9.90814 29.507745,19.46808 44.222019,29.01786 25.851683,16.74743 52.145163,32.41657 78.175473,48.88649 13.96186,8.81277 27.92463,17.30411 41.88589,26.11782 -0.39948,-12.10995 -0.85634,-24.21942 -1.22106,-36.32962 0.13101,-6.58982 0.21679,-13.1766 0.46456,-19.72356 0.1977,-3.54082 0.19546,-7.15065 1.1532,-10.59057 0.76557,-2.81184 2.84884,-4.95023 4.77818,-7.02278 0.76392,-0.91573 1.82215,-1.5705 2.48332,-2.56199 0.73407,-1.17347 0.057,-2.72956 -1.12144,-3.31464 -2.55014,-1.33493 -5.19303,-2.50578 -7.65408,-4.01212 -5.35663,-3.15382 -10.32769,-6.90278 -15.46685,-10.38884 -2.01147,-1.39585 -4.02482,-2.789 -6.03497,-4.18674 -4.49851,0.93838 -8.97343,1.99982 -13.48827,2.85374 -4.33908,0.64309 -8.78178,0.63462 -13.12306,0.0212 -2.54162,-0.76423 -4.82015,-2.19279 -7.13876,-3.4526 -7.24118,-4.16249 -14.1893,-8.56526 -21.24941,-13.01077 -18.62926,-11.80911 -37.140116,-23.80509 -55.63668,-35.82083 -8.829163,-5.71249 -17.579339,-11.56136 -26.675338,-16.8468 -2.352504,-1.27273 -4.678629,-2.74463 -7.313483,-3.34551 -0.332106,-0.0463 -2.755151,-1.2002 -3.087812,-1.1473 z" />
      <path
         id="path11"
         style="fill:#00857a;fill-opacity:1"
         d="m 211.15625,40.287109 c -4.61579,0.332097 -9.16501,1.242997 -13.73233,1.952316 -26.37496,4.379385 -52.76531,8.646266 -79.13361,13.084833 -25.803121,4.337077 -51.71402,8.189173 -77.467112,12.814834 -3.578023,0.625942 -11.693307,1.587472 -15.629967,2.570084 2.239269,1.941198 9.307755,4.629394 11.73158,6.337089 16.764234,12.170491 34.227652,23.026225 51.656599,34.221905 21.62012,13.83112 43.66576,26.99575 66.0389,39.57021 1.63385,0.91247 3.26732,1.82544 4.91094,2.72021 5.32104,-0.66697 10.4446,-1.12366 15.74598,-1.93001 46.79828,-7.4585 93.73189,-15.5517 140.49219,-23.24119 8.23372,-1.38216 16.48269,-2.68239 24.69576,-4.17899 1.30783,-0.28298 2.61566,-0.56602 3.92349,-0.84902 -1.51733,-1.343 -2.88318,-2.88263 -4.6639,-3.89162 C 325.58512,110.33962 311.31991,101.40465 297.094,92.414384 271.97334,76.603959 246.85405,60.795072 221.63477,45.142578 c -2.49844,-1.494449 -4.92442,-3.118154 -7.48438,-4.503906 -0.94962,-0.373926 -1.98893,-0.38232 -2.99414,-0.351563 z M 9.3671875,75.224609 C 8.4740882,75.377043 7.6677941,75.879846 6.828125,76.21875 4.6181617,77.311613 3.6561728,79.783995 3.2529998,82.072261 2.444782,86.74685 2.4896778,91.514139 2.3811675,96.242552 c -0.09747,5.983958 0.02612,12.065088 -0.1917144,17.987918 -0.184224,5.83309 -0.7039601,11.6504 -0.8867187,17.48242 -0.026544,1.33206 0.019646,2.84696 1.1131758,3.78865 2.6208484,2.55303 5.6636635,4.62262 8.6129018,6.77222 11.234183,7.9088 22.909125,15.16754 34.61318,22.35441 14.392689,8.75478 28.903919,17.31352 43.35383,25.97442 16.039728,9.57921 32.080118,19.15731 48.119408,28.73725 0.0941,-9.59807 0.10691,-19.19752 0.24954,-28.79474 0.19649,-5.98623 0.28548,-12.11503 1.24851,-18.09393 0.40418,-2.63834 1.48361,-5.0938 2.67788,-7.45787 0.92629,-1.94182 1.85136,-3.88423 2.77915,-5.82533 C 118.17058,142.16309 92.285831,125.13298 66.376202,108.14513 52.907157,99.405366 39.362075,90.764123 25.430424,82.775157 21.012143,80.300186 16.611151,77.748029 11.927734,75.800781 11.107399,75.501134 10.255679,75.153698 9.3671875,75.224609 Z" />
      <path
         id="path2"
         style="fill:#080222;fill-opacity:1"
         d="m 215.90234,28.189453 c -5.50431,0.352855 -10.95823,1.238924 -16.41775,1.994327 -20.8734,3.096756 -41.75361,6.558104 -62.60534,9.955701 -32.816,5.377855 -65.655369,10.7277 -98.437119,16.252014 -9.877419,1.713415 -19.780485,3.307479 -29.5933772,5.367872 -2.1054249,0.469509 -4.3209773,0.878384 -6.0503824,2.26672 -3.8629469,2.817275 -6.9485013,6.604673 -9.3861676,10.692094 -1.1270315,1.847937 -1.9791626,3.885586 -2.1605768,6.061445 -0.2508966,2.076296 -0.338953,4.165982 -0.4150189,6.179638 -0.2458887,8.22865 -0.3114463,16.626206 -0.3940842,24.922726 -0.0066,6.47455 -0.1426705,12.96921 0.4774004,19.4224 0.3218835,3.22538 1.0811207,6.54479 3.1557678,9.12563 1.7432603,2.4209 4.2912525,4.07283 6.62805954,5.86193 4.83980166,3.61987 10.14074836,6.54757 15.13264836,9.93978 1.630946,1.15639 3.577529,2.55294 3.704616,4.73897 0.07675,1.44291 -0.64763,2.77854 -0.617457,4.2247 -0.3029,4.08431 -0.357728,8.08197 -0.448334,12.19574 -0.20088,12.63816 -0.173053,25.28129 0.138056,37.91745 0.07812,2.33648 0.146711,4.97808 0.292969,7.29297 0.09287,1.75897 0.214659,3.53684 0.865649,5.19376 0.940751,3.16371 2.789885,6.00913 5.224577,8.22846 4.347389,4.01801 9.386643,7.17923 14.30037,10.44454 9.100051,5.90654 18.361223,11.57414 27.242216,17.81098 0.819203,0.55107 1.550956,1.22787 1.910601,2.16918 0.575456,0.56077 -0.306428,0.98967 -0.564267,1.47504 -1.286096,1.30876 -2.880573,2.28216 -4.322292,3.4132 -22.302335,16.28173 -45.020276,31.98047 -67.4872177,48.03244 -7.1427213,5.15861 -14.3540443,10.23692 -21.2149633,15.77002 -1.226331,1.07927 -2.6294,2.04884 -3.540458,3.42054 -0.947109,2.15103 -0.08268,4.50214 0.385451,6.66043 1.560561,5.78224 3.26261,11.52748 4.62807,17.3611 1.878179,7.99377 3.62978,16.04584 4.476271,24.22348 0.493359,6.41724 -0.403538,12.843 -1.451264,19.16241 -1.503479,8.74588 -3.763815,17.33393 -6.012886,25.90855 -0.860637,3.6467 -1.901909,7.30167 -2.047279,11.06572 -0.01077,1.18255 0.192454,2.62629 1.251603,3.31893 3.590631,1.19727 7.335523,1.85069 11.025418,2.66591 17.25331429,3.52946 34.587849,6.64419 51.904513,9.84372 51.744556,9.42543 103.519058,18.73424 155.316518,27.90386 12.06116,2.11896 24.15567,4.26159 36.24609,6.29492 0.89957,0.1426 1.94565,0.32071 2.83984,0.44336 2.06983,0.0126 4.16955,-0.3494 6.11328,-1.05859 3.22046,-1.81668 6.2045,-3.8837 9.26551,-5.90189 15.42975,-10.36614 30.45588,-21.31586 45.66734,-31.9941 27.38574,-19.36147 54.8404,-38.6202 82.25328,-57.9438 15.20617,-10.76867 30.43331,-21.5108 45.45247,-32.53987 1.94687,-1.44546 3.94891,-2.86031 5.4864,-4.76292 2.84961,-3.18568 4.37508,-7.31975 5.05549,-11.48939 1.09413,-6.62981 0.9526,-13.37399 1.24904,-20.06677 0.0504,-1.5555 0.10111,-3.11098 0.15055,-4.6665 7.54087,-1.54364 15.16158,-2.65157 22.75043,-3.92432 5.96783,-1.00846 11.89968,-1.80853 17.80715,-3.20183 2.0409,-0.5606 4.24953,-1.03014 5.89359,-2.44611 1.24809,-1.23091 0.80821,-3.15549 0.54765,-4.68894 -0.90428,-4.12189 -2.34964,-8.10187 -3.35463,-12.19931 -2.67236,-10.26239 -4.40193,-20.76483 -5.31414,-31.327 -0.54747,-6.5652 -0.0497,-13.19863 1.37894,-19.62655 1.57162,-7.3187 4.0103,-14.40638 6.23828,-21.54102 0.59829,-2.3116 1.44079,-4.71662 0.99582,-7.12839 -0.57843,-2.18482 -2.66897,-3.3979 -4.43627,-4.54999 -15.99935,-10.44125 -32.15118,-20.6454 -48.27603,-30.89077 -19.55357,-12.41017 -39.14715,-24.75741 -58.61107,-37.30633 -0.82721,-0.57115 -1.92531,-1.05703 -2.07284,-2.16944 -0.25556,-1.78071 0.52081,-3.50831 1.0612,-5.1694 1.1685,-3.16749 2.92475,-6.26077 2.972,-9.71732 -0.0135,-1.82933 -1.10327,-3.55562 -2.68819,-4.43978 -0.82712,-0.59342 -1.71512,-1.17515 -2.62713,-1.79912 -13.74058,-9.1307 -27.65318,-17.99855 -41.53373,-26.914134 -27.76549,-17.753643 -55.55812,-35.425413 -83.506,-52.889738 -6.89617,-4.266917 -13.73597,-8.63184 -20.76061,-12.685782 -0.33277,-0.271498 -0.74333,-0.171927 -1.13825,-0.183553 z m -1.81054,12.392578 c 28.72239,18.195654 57.48397,36.329958 86.17188,54.579684 10.61821,6.790075 21.28279,13.514815 31.69271,20.622475 2.20226,1.5908 4.5582,3.03858 6.43423,5.0244 0.87964,0.90229 1.00149,2.56743 -0.0512,3.37077 -1.01923,0.77909 -2.40821,0.70697 -3.60387,1.03373 -16.64329,2.9505 -33.10175,5.37001 -49.77432,8.13431 -30.96093,5.05437 -62.16581,10.32549 -93.13574,15.32397 -10.1009,1.2004 -20.19462,3.25764 -30.32524,4.66053 -0.95346,0.19164 -1.94778,0.13717 -2.78688,-0.40199 -5.04611,-2.73162 -9.89128,-5.81813 -14.77889,-8.82025 -12.51388,-7.80988 -24.89425,-15.83298 -37.36349,-23.715 C 88.899974,109.13485 71.147422,98.00226 53.495494,86.712821 47.011825,82.517888 40.985173,79.132967 34.027488,75.168408 c -0.684723,-0.526046 -6.473049,-3.164831 -8.565772,-4.313894 1.187568,-0.711243 6.124146,-1.291635 6.919328,-1.37142 1.948526,-0.221532 5.09392,-0.726253 6.751195,-0.798276 22.942013,-3.840671 45.617281,-7.424167 68.606561,-11.215623 35.23652,-5.766233 70.47258,-11.535302 105.71042,-17.293414 0.21419,0.135417 0.42838,0.270834 0.64258,0.40625 z M 9.1445312,75.566406 c 1.8232528,0.325536 3.4104068,1.38723 5.0387548,2.217227 8.959002,5.014743 17.64102,10.502183 26.376289,15.891826 27.535797,17.189411 54.915346,34.624681 82.322625,52.018481 6.37814,4.10152 12.8236,8.1007 19.14514,12.28848 0.9884,1.19466 0.53644,2.82095 0.10157,4.14649 -0.96657,3.20653 -3.04852,5.98234 -3.70355,9.29172 -0.75348,4.25557 -0.72295,8.63982 -0.89289,12.90849 -0.28867,11.29072 -0.52508,22.58275 -0.79224,33.874 C 105.05597,198.03555 73.276729,178.01609 41.535732,157.93931 30.086545,150.62525 18.603095,143.35862 7.3496696,135.74546 5.9157295,134.71958 4.2244797,133.79607 3.5635889,132.05285 2.5171286,129.34887 2.6128432,126.3852 2.4540705,123.53374 2.2756965,115.06085 2.2986618,106.584 2.3805913,98.109959 2.5015426,93.177719 2.4959552,88.202941 3.4003906,83.335938 3.9120078,80.561762 5.1782326,77.836773 7.4433594,76.070312 7.900355,75.659111 8.5385526,75.479124 9.1445312,75.566406 Z M 351.02539,137.50391 c 0.2983,1.19995 -0.26108,2.42296 -0.46613,3.6047 -0.96049,3.94901 -2.27753,7.81927 -2.82488,11.86014 -0.10889,0.7179 -0.24755,1.72842 -0.3391,2.56777 -0.31505,2.76059 -0.46534,5.57555 -0.48382,8.27676 -0.0494,7.1951 0.76951,14.47152 2.79948,21.35274 0.73402,2.89903 1.56515,5.78886 1.97656,8.75586 0.12709,1.55059 -1.22222,2.68188 -2.57609,3.11949 -3.54292,1.22768 -7.27164,1.79413 -10.93861,2.52631 -16.83055,3.08164 -33.73612,5.72446 -50.61844,8.50467 -38.12477,6.16451 -76.24688,12.34744 -114.3811,18.45296 -6.25637,0.9563 -12.49397,2.0599 -18.78272,2.78342 -0.96949,0.11983 -2.00666,0.0668 -2.78233,-0.59435 -0.39511,-0.31073 -0.4886,-0.98451 -0.57696,-1.46047 -0.42978,-2.70281 -0.36084,-5.46038 -0.48899,-8.18967 -0.28803,-12.26621 -0.25944,-24.53824 -0.1321,-36.80643 0.12509,-3.4371 0.0214,-6.92905 0.79492,-10.30078 0.40616,-1.64924 1.56959,-3.15276 3.25195,-3.62109 4.10711,-1.33639 8.39289,-2.00412 12.6201,-2.84428 17.24547,-3.13618 34.56647,-5.84003 51.86699,-8.65636 35.78039,-5.7495 71.55085,-11.56185 107.33074,-17.31359 7.49901,-1.15714 14.9803,-2.4377 22.50053,-3.44554 0.60287,-0.0312 1.20573,-0.0625 1.80859,-0.0937 0.14714,0.50716 0.29428,1.01432 0.44141,1.52149 z m 10.56641,20.14062 c 1.93525,0.2904 3.61933,1.40881 5.33849,2.27748 7.90664,4.4046 15.54982,9.25901 23.23355,14.03613 16.70239,10.47454 33.37191,21.00668 49.79667,31.91216 3.16092,2.14357 6.39724,4.19422 9.39301,6.5672 0.5151,0.43795 0.97483,0.97948 0.96457,1.68946 0.17147,0.65169 0.30092,1.28516 -0.48587,1.5216 -0.56049,0.51538 -1.27062,0.65153 -2.00421,0.72867 -40.55519,6.69583 -81.12803,13.29862 -121.6967,19.92603 -26.88454,4.37442 -53.7619,8.79475 -80.66156,13.07478 -6.79229,1.05444 -13.5737,2.18976 -20.38381,3.12001 -1.51029,0.0167 -2.80252,-0.96756 -4.11548,-1.60044 -5.67027,-3.23394 -11.17087,-6.7706 -16.48453,-10.56114 -1.17701,-0.95116 -2.63136,-1.73714 -3.31601,-3.14897 -0.10399,-0.55863 -0.2797,-1.12714 0.1211,-1.61523 0.14557,-0.65553 0.61895,-0.94408 1.24485,-1.0621 3.76843,-0.8617 7.6059,-1.40834 11.41082,-2.09447 45.67441,-7.75972 91.49345,-14.69096 137.15687,-22.45011 4.5625,-0.80583 9.14456,-1.51762 13.67964,-2.46754 2.73728,-1.05336 4.04621,-4.43329 3.08963,-7.13671 -1.35692,-4.87161 -3.72936,-9.38037 -5.15111,-14.23084 -1.96427,-6.38421 -3.4684,-12.94075 -4.09477,-19.59925 -0.14643,-2.46753 -0.40852,-5.08371 0.56463,-7.42224 0.37675,-0.97112 1.36205,-1.59269 2.40022,-1.46448 z M 33.910156,167.9082 c 32.593019,21.12854 65.225761,42.19613 98.047704,62.96804 4.71683,2.91993 9.32946,6.02626 14.22677,8.64116 2.60902,1.40831 5.57809,2.12495 8.54531,1.95829 5.25207,-0.241 10.41816,-1.31403 15.60166,-2.1234 2.36215,-0.39203 4.72408,-0.78536 7.08637,-1.17651 10.23728,6.50864 20.47384,13.01842 30.71094,19.52734 -1.93372,2.24344 -4.04341,4.34222 -5.83789,6.70118 -2.16845,3.06187 -2.47145,6.94054 -2.85391,10.55669 -0.31204,3.60405 -0.4387,7.33893 -0.5582,10.94135 -0.3894,13.63299 -0.32118,27.28345 -1.14648,40.90073 -0.11745,0.95592 -0.0552,2.05363 -0.62612,2.85744 -0.44185,0.41568 -0.88198,0.83319 -1.32311,1.24965 -4.10934,-2.29841 -8.0359,-4.90643 -12.04569,-7.3718 -31.21894,-19.59923 -62.36255,-39.33108 -93.482209,-59.08788 -15.109664,-9.64286 -30.266856,-19.21463 -45.175223,-29.16728 -3.821696,-2.64879 -7.771082,-5.15841 -11.25,-8.25976 -2.205382,-1.90609 -2.80156,-4.94469 -3.053079,-7.71101 -0.4672,-6.09848 -0.272991,-12.22351 -0.274365,-18.33424 0.103839,-11.68103 0.240573,-23.36173 0.356741,-35.04264 z m 425.191404,59.63868 c 1.47521,0.13459 2.18851,1.74993 2.04888,3.08039 -0.30936,4.43208 -1.91627,8.63627 -2.67974,12.99187 -2.01708,11.06481 -1.72084,22.429 -0.37304,33.55469 0.87439,7.10414 2.32742,14.12534 4.12166,21.05067 0.34547,1.79688 0.9141,3.64407 0.61857,5.48253 -0.19219,0.61438 -0.49313,1.32181 -1.19336,1.46289 -1.924,0.63028 -3.96611,0.84723 -5.95015,1.24346 -17.58984,3.04436 -35.2213,5.84674 -52.83891,8.73115 -42.58192,6.88335 -85.1693,13.73516 -127.75925,20.56858 -18.37711,2.921 -36.74657,5.898 -55.15872,8.58767 -1.99822,0.30216 -4.36064,0.53012 -5.98828,-0.92383 -1.73406,-1.7228 -1.89877,-4.33044 -2.16255,-6.62489 -0.50373,-6.58882 -0.40469,-13.20559 -0.45486,-19.80909 0.0125,-11.38807 -0.0858,-22.77872 0.18327,-34.16452 0.16555,-3.28794 0.10632,-6.65862 1.08258,-9.83509 0.87651,-2.30681 2.59895,-4.23289 4.55664,-5.69531 1.3849,-0.9492 3.14756,-0.95237 4.72851,-1.35988 15.86395,-2.93263 31.79021,-5.51368 47.70815,-8.13392 38.28231,-6.19742 76.58068,-12.29684 114.86705,-18.46978 24.25445,-3.88372 48.49853,-7.84129 72.77637,-11.56767 0.61749,-0.0557 1.24823,-0.24982 1.86718,-0.16992 z M 83.644531,275.09375 c 5.697615,3.44438 11.282165,7.07398 16.910659,10.63083 31.75017,20.20143 63.33994,40.65186 95.11252,60.81826 4.89459,3.0363 9.76551,6.24232 14.85429,9.00295 1.42181,0.81112 3.04986,1.2415 4.69117,1.08913 1.65783,-0.0492 3.1111,-0.17672 4.76055,-0.33931 10.95747,-1.17558 21.79281,-3.14714 32.70688,-4.64358 1.87277,-0.21933 3.74162,-0.61123 5.62822,-0.63266 0.79875,0.0456 1.59751,0.0913 2.39626,0.13688 -0.34355,0.99261 -0.47804,2.09993 -0.9534,3.02039 -1.42108,1.45179 -3.18252,2.52254 -4.77993,3.76865 -9.20704,6.67844 -18.52623,13.20415 -27.90306,19.64195 -0.82938,0.59953 -1.73068,1.20986 -2.80971,1.09049 -4.11714,-0.19156 -8.17964,-0.98739 -12.22989,-1.70973 -29.73575,-5.48935 -59.48277,-10.8481 -89.23673,-16.24904 -37.366899,-6.7741 -74.744166,-13.4913 -112.033303,-20.68041 -4.2507254,-0.86093 -8.5321258,-1.60232 -12.7375726,-2.66746 -0.9155211,-0.2649 -1.402086,-1.18347 -2.109375,-1.76562 0.7385813,-1.05407 1.5141993,-2.08905 2.5954992,-2.81794 6.5855224,-5.04139 13.3976474,-9.77813 20.1492714,-14.59254 17.321597,-12.2239 34.713259,-24.34811 52.27617,-36.22323 3.494358,-2.31392 6.924941,-4.73977 10.563044,-6.82528 0.482421,-0.23733 1.080269,-0.39728 1.595027,-0.36318 0.18447,0.10348 0.36894,0.20697 0.55341,0.31045 z m 332.685549,50.51563 c 1.1734,0.24076 1.62021,1.57132 1.70348,2.64021 0.40134,4.33261 0.15936,8.69686 -0.0849,13.03211 -0.23178,3.26902 -0.631,6.81316 -2.86218,9.38958 -2.39883,2.14537 -5.06253,3.97693 -7.61752,5.93058 -15.76699,11.63156 -31.72222,23.00715 -47.6748,34.38161 -23.86731,16.98326 -47.83131,33.83196 -71.79061,50.68166 -11.07517,7.75073 -22.10812,15.56052 -33.2692,23.18839 -0.62836,0.41665 -1.30658,0.75027 -1.95899,1.12695 -0.63645,-0.76997 -1.63673,-1.36273 -1.67908,-2.45629 -0.43609,-3.90945 -0.45686,-7.85362 -0.61372,-11.78179 -0.47705,-14.09687 -0.33658,-28.21032 -0.96306,-42.30294 -0.27831,-4.42514 -0.49199,-9.06583 -1.89467,-13.37748 -1.12703,-3.54698 -3.5388,-6.44515 -5.35142,-9.63814 -0.76774,-1.2826 -0.85614,-3.07233 0.25586,-4.18945 1.47541,-1.41611 3.27156,-2.4508 4.89803,-3.68349 15.85332,-11.26176 31.74596,-22.47312 47.6254,-33.70128 39.45279,-6.3468 78.89256,-12.7854 118.36495,-19.00274 0.89041,-0.0911 1.80076,-0.37352 2.68204,-0.30682 0.0768,0.0231 0.15357,0.0462 0.23036,0.0693 z m -427.193361,24.18554 c 7.0897798,0.96981 14.1301325,2.27084 21.19088,3.42791 45.481422,7.78025 90.915751,15.8252 136.342231,23.91951 24.41039,4.3823 48.83121,8.71234 73.19785,13.32603 3.2901,0.71869 6.70576,1.07917 9.82441,2.4159 2.64303,1.14702 4.61832,3.48914 5.8058,6.06217 1.05553,2.84381 1.00359,5.93644 1.19019,8.92401 0.33596,10.19354 0.30894,20.3954 0.41858,30.59322 0.0508,11.11649 0.17584,22.23851 -0.1972,33.35061 -0.14089,2.11125 -0.0827,4.28126 -0.67899,6.32634 -0.98883,2.43468 -3.83619,3.60949 -6.33263,3.20762 -10.06431,-1.57865 -20.08526,-3.42137 -30.12016,-5.17481 C 164.77509,469.95777 129.80586,463.55457 94.812731,457.28522 58.150095,450.68604 21.4738,444.16317 -15.201172,437.63281 c 1.532744,-7.44715 3.337394,-14.83397 4.958984,-22.26172 0.2765173,-1.27176 0.551682,-2.67938 0.804688,-3.94726 1.7360706,-8.87643 2.7074286,-17.96577 1.96875,-27.00781 -0.039328,-0.45891 -0.1067356,-1.3384 -0.1553213,-1.78684 -0.3187755,-3.30795 -0.8231191,-6.64386 -1.420714,-9.83605 -1.0338297,-5.78181 -2.6513797,-11.47257 -3.7748597,-17.28589 -0.18541,-1.40213 -0.689011,-2.84784 -0.381527,-4.25529 0.266631,-0.43098 0.187746,-1.335 0.68241,-1.45336 0.551386,0.004 1.105444,-0.0323 1.655481,-0.004 z" />
      <path
         id="path36"
         style="fill:#ffd77c;fill-opacity:1;stroke-width:0.32"
         d="m 82.763672,272.98633 c -2.120603,0.21852 -3.85993,1.64936 -5.614217,2.74799 -12.661471,8.31018 -25.082523,16.97999 -37.538175,25.59389 -13.09006,9.1369 -26.202592,18.24685 -39.06926633,27.6964 -1.70810957,1.32798 -3.66532647,2.51518 -4.79201367,4.4207 -0.9873084,1.89803 -0.2539928,4.51828 1.7246336,5.45 1.53534845,0.76825 3.28815128,0.90688 4.9360839,1.32062 14.6118625,2.99318 29.2933655,5.62808 43.9549475,8.36686 48.251447,8.91343 96.542455,17.63306 144.812345,26.43166 9.5723,1.72442 19.16081,3.57129 28.78236,5.08918 1.54267,0.18211 3.10246,0.50156 4.65291,0.42762 2.29476,-0.42965 4.09179,-2.04601 6.01956,-3.24543 7.43239,-5.03144 14.69762,-10.30152 22.04985,-15.44575 2.94607,-1.97631 6.17797,-3.58853 8.79746,-6.0111 1.16337,-1.03819 1.9753,-2.80284 1.14578,-4.28498 -0.50978,-1.18673 -1.82837,-1.86648 -3.03242,-1.86427 -1.3633,-0.31822 -2.77189,-0.24314 -4.17833,-0.1342 -2.99001,0.18891 -5.94012,0.77354 -8.90896,1.16054 -9.2157,1.33261 -18.41098,2.85604 -27.67814,3.79445 -1.9497,0.14562 -3.94062,0.34255 -5.87691,0.0307 -2.99149,-1.16917 -5.65135,-3.01431 -8.4075,-4.63464 -12.36463,-7.61863 -24.55186,-15.51925 -36.79917,-23.32455 -26.91098,-17.19005 -53.75334,-34.50116 -80.760125,-51.54862 -1.137783,-0.6725 -2.274398,-1.39459 -3.472201,-1.93374 -0.249075,-0.0505 -0.490315,-0.14636 -0.748502,-0.10337 z" />
    </g>
  </g>
</svg>
