<?xml version="1.0" encoding="UTF-8" standalone="no"?>
<!-- Created with Inkscape (http://www.inkscape.org/) -->

<svg
   width="132.94646mm"
   height="135.27313mm"
   viewBox="0 0 132.94646 135.27313"
   version="1.1"
   id="svg1"
   xml:space="preserve"
   xmlns="http://www.w3.org/2000/svg"
   xmlns:svg="http://www.w3.org/2000/svg"><defs
     id="defs1" /><g
     id="layer1"
     transform="translate(-37.282594,-83.841263)"><g
       id="g1"
       transform="translate(6.31125,8.53875)"
       style="display:inline"><path
         id="path3"
         style="fill:#00857a;fill-opacity:1"
         d="m 135.39802,111.92734 -3.06752,0.20206 c 0.0461,6.92349 -12.07179,18.0968 -24.40033,11.80423 -4.03927,-2.06167 -8.479095,-4.77398 -11.131355,-11.70653 h -2.81378 c -5.019647,0 -8.112173,0.35924 -10.463961,3.18688 -1.252274,1.50565 -1.499912,2.08203 -6.3469,13.84567 -2.218488,5.38427 -4.589297,11.48317 -5.428609,13.51287 l -1.526005,3.69021 5.103564,2.38177 5.694226,2.11925 0.06666,-12.00547 0.09974,-12.13724 -0.01499,-0.15761 c 1.056142,-0.59301 1.596939,-1.00308 2.613278,-0.32815 l 0.879016,0.58343 0.328145,38.21265 v 38.37699 l 20.731561,0.45888 c 12.71775,0.28182 20.74605,-0.56087 21.63175,-0.7276 3.3307,-0.62699 7.14216,-2.54459 8.04447,-5.86941 l 0.52452,-1.93166 0.39894,-20.03341 -0.25063,-20.23029 -1.00562,0.38758 c -5.19834,0.98582 -10.6855,-0.53478 -12.98578,-5.44257 -0.69762,-1.48849 -0.47828,-1.52207 -0.56068,-7.73441 -0.0826,-6.23199 -0.34259,-6.08858 0.24443,-6.70967 l 0.65835,-0.69659 9.02736,-0.26252 c 4.9832,0 9.15508,0.30337 9.39064,0.39377 1.00411,0.38533 0.88427,1.48977 0.89917,6.57945 l 0.015,5.21622 1.51102,-1.07694 1.41438,-0.31781 -0.15296,-9.92187 0.33331,-8.94881 -2.82412,-7.26984 c -1.44513,-3.56526 -2.55911,-7.00612 -2.70216,-7.19233 -0.1917,-0.24994 -1.5908,-0.30565 -3.93412,-0.25115 z" /><path
         id="path7"
         style="fill:#ffcb52;fill-opacity:1;stroke-width:1.08132"
         d="m 123.01691,138.58852 v 3.63234 c 0,4.01887 0.1388,5.9758 1.24168,7.31893 1.02826,1.25223 2.22557,1.98119 3.84226,2.47375 2.75209,0.83847 5.71676,0.5192 7.93577,-1.37861 2.0409,-1.74548 2.14256,-2.93789 2.09859,-7.71489 l -0.0387,-4.16718 -7.65491,-0.0987 z" /><path
         style="fill:#d09080;fill-opacity:1"
         d="m 73.405162,122.48062 c -1.517944,-0.7919 -6.010325,-3.03579 -5.780802,-3.26531 0.07951,-0.0795 3.277599,-0.45516 4.020923,-0.88814 1.769353,-1.03065 2.992331,-1.33132 4.955069,-3.01863 0.825255,-0.70945 1.931101,-0.98333 2.172309,-0.96507 0.613148,0.0464 0.997256,0.0429 0.94123,0.15203 -0.666255,1.29789 -2.72282,5.43403 -3.329891,6.93857 -0.425503,1.05455 -1.111612,2.29302 -1.184372,2.29035 -0.07276,-0.003 -1.033411,-0.84677 -1.794466,-1.2438 z m -7.139378,-6.92311 c -0.13241,-0.34827 -0.26609,-1.62515 -0.141335,-2.14438 l 0.285038,-1.18632 1.293144,-0.47006 c 1.45104,-0.52746 2.694563,-0.72288 4.760326,-2.4608 0.944799,-0.79486 2.016903,-1.65808 2.666046,-2.08842 0.649144,-0.43034 1.542112,-1.20416 1.984375,-1.83304 0.730256,-1.03839 0.812138,-0.7629 0.891475,-2.96544 0.0789,-2.19044 0.119753,-2.607791 -0.443801,-3.444151 -0.343187,-0.50933 -1.169144,-1.17691 -1.948899,-1.59696 -1.807617,-0.97375 -3.385865,-2.55455 -4.319948,-4.327391 -0.670259,-1.272111 -0.783046,-1.834069 -0.783046,-4.361848 0,-2.527779 0.112786,-3.321768 0.783046,-4.593879 1.0205,-1.936847 2.76247,-3.40358 4.817639,-4.36531 2.252089,-1.053879 5.115195,-0.980441 7.563377,-0.04407 3.022476,1.156021 5.376216,4.260688 5.894787,7.821809 0.162375,1.115054 0.109197,1.836885 -0.482616,2.428698 -0.827798,0.827798 -1.263227,0.922679 -2.077427,0.108482 -0.422632,-0.422632 -1.53318,-1.278774 -1.536962,-1.846197 -0.0069,-1.030906 -0.338377,-2.717198 -1.153788,-3.605064 -0.957432,-1.042507 -2.58004,-2.017663 -4.215869,-2.014036 -5.604105,0.01242 -8.342814,6.661929 -4.334557,10.527949 0.616043,0.594182 1.446352,0.942705 1.90185,1.171525 2.61285,1.312572 3.843956,3.622032 4.134377,7.371313 0.250927,3.23943 1.193399,4.57405 3.303197,5.92368 0.779224,0.49846 1.698034,1.26256 1.783369,1.40064 0.08534,0.13808 -0.385353,0.4057 -1.127855,0.77863 -1.246667,0.62617 -2.421642,0.75821 -5.662035,1.04932 l -3.615938,0.32484 -1.8455,1.50721 c -0.507251,0.41427 -1.584676,0.74209 -2.071772,1.27399 -1.067443,1.16564 -2.826021,0.61365 -3.389779,1.86441 -0.715901,1.5883 -2.01982,0.19586 -2.069456,0.19586 -0.04964,0 -0.662646,-0.74902 -0.795057,-1.09728 z m 34.778336,-1.24237 c -0.61184,-1.79566 -0.61608,-2.13474 0.48927,-2.13474 1.73975,0 3.2562,-0.81629 5.45913,-2.67698 1.1916,-1.00647 2.56279,-2.17418 2.93364,-2.36804 1.63778,-0.85613 2.72757,-2.17433 3.00592,-4.40212 0.34369,-2.750851 -0.75572,-4.133091 -3.11857,-5.466591 -1.70319,-0.96123 -3.35457,-3.044542 -4.11842,-4.697914 -0.45868,-0.992807 -0.75721,-1.733466 -0.75737,-3.750646 -1.7e-4,-2.196497 0.18292,-2.558099 0.80819,-3.83131 0.96819,-1.971332 2.97194,-4.312058 4.98871,-5.264735 4.28501,-2.024147 10.24774,0.01021 12.53119,4.205663 0.82511,1.516 1.00305,3.967143 0.77026,4.894628 -0.0888,0.353975 -0.41088,1.162228 -0.77238,1.399087 -0.60433,0.395977 -0.70952,0.767658 -1.30635,0.37655 -0.42587,-0.279041 -1.12018,-0.952829 -1.22212,-1.605117 -0.45898,-2.936882 -1.13728,-4.648442 -3.31582,-5.662872 -2.42324,-1.128377 -4.4102,-0.551683 -6.40254,1.197616 -1.50206,1.318826 -2.22122,2.253922 -2.22122,4.290441 0,2.675397 1.30037,4.504656 4.01399,5.889039 2.27083,1.15849 3.9093,3.97665 3.91234,7.011011 0.003,2.90777 0.83297,4.1092 3.36493,5.86243 0.84061,0.58207 2.09412,1.53717 2.89901,2.23586 1.74919,1.51842 2.58378,2.08552 4.18752,2.08552 0.82861,0 1.53222,0.42544 1.46394,0.65557 -0.054,0.1819 -0.27425,0.9395 -0.56515,1.59811 l -0.33012,1.52989 -1.63475,0.12699 c -1.85233,0.14389 -4.3553,-1.67262 -6.3857,-3.49968 l -1.52725,-1.37429 -3.48112,-0.55988 c -1.16037,-0.001 -2.76781,2.44252 -3.41549,0.39077 l -1.76951,1.46327 c -2.28151,1.88666 -4.53504,4.56362 -6.38569,4.00742 l -1.62629,-0.48877 z"
         id="path6" /><path
         style="fill:#eb5a47;fill-opacity:1"
         d="m 50.131911,165.2627 -0.131257,-38.40942 -0.386918,-0.51818 c -0.819049,-1.09692 -2.240341,-0.88228 -2.865718,0.20879 -0.235953,0.41165 -0.185649,3.89285 -0.324413,12.60877 l -0.127601,8.01476 -0.07032,3.7345 -5.520331,-1.99788 c -2.886557,-1.04469 -5.089751,-2.38015 -5.124974,-2.40621 -0.03522,-0.0261 0.123695,-1.0826 0.633896,-2.34788 0.981354,-2.43372 1.139347,-3.10617 0.248613,-3.73006 -0.451525,-0.31626 -0.322484,-0.7003 0.654164,-3.03287 0.568455,-1.35767 0.952823,-2.60326 0.854152,-2.76799 -0.100443,-0.16769 0.137757,-0.44427 0.37421,-0.25273 0.505656,0.40959 1.429247,0.12521 1.98415,-0.4977 0.215201,-0.24157 1.677304,-3.72187 3.449648,-8.01473 3.412395,-8.2653 3.887651,-9.32921 5.519639,-10.9329 2.243803,-2.2049 5.203303,-2.69417 10.021434,-2.69417 l 3.071399,0.0328 0.275197,1.58449 c 0.367854,2.11797 1.353409,4.29904 2.412404,5.86818 0.457441,0.67779 1.071392,1.58565 1.003379,1.81693 -0.06801,0.23128 -1.83026,3.27191 -3.314513,6.83717 -1.484253,3.56526 -2.794626,7.0776 -2.911941,7.80521 -0.276952,1.71769 0.05267,3.70521 0.887839,5.35333 0.781849,1.54291 3.43368,3.51769 4.740916,3.94912 0.779734,0.25733 0.642085,0.50065 0.417941,0.91947 -0.336147,0.6281 -0.51167,1.92199 0.06283,2.33792 0.375004,0.2715 1.477561,0.82412 3.131367,1.6181 l 3.135838,1.06926 0.41566,1.61382 c 0.423717,1.6451 0.375411,39.22957 0.02114,41.3927 -0.722047,4.40876 -4.479336,7.88665 -8.794084,8.78939 -0.790981,0.16549 -3.864647,0.58053 -7.288854,0.47897 l -6.258018,-0.18563 z"
         id="path5" /><path
         style="fill:#de4a36;fill-opacity:1"
         d="m 50.328796,205.09555 v -1.5875 h 6.072393 c 3.425713,0 6.683498,-0.12785 7.474479,-0.29334 4.314748,-0.90274 7.051099,-4.47344 7.773146,-8.8822 0.3261,-1.99114 0.974886,-39.81328 0.648706,-41.22015 -0.134008,-0.578 -0.755034,-1.49549 -0.44042,-1.7143 0.293827,-0.20435 2.420406,1.05858 4.688923,2.07403 l 4.47133,1.85803 -0.0055,1.97298 0.116294,23.99799 -0.07438,25.38196 H 65.543636 50.328786 Z m 14.368253,-59.65557 c -1.288654,-0.55952 -3.876573,-2.20369 -4.608904,-3.64888 -0.82528,-1.62861 -0.692566,-4.56143 -0.418747,-6.26919 0.174099,-1.08584 2.639226,-6.2726 5.534378,-13.04532 l 0.604069,-1.42366 2.204721,2.01526 c 1.432125,1.30905 2.532441,2.09884 3.830826,2.71583 1.55833,0.74051 2.39239,1.15407 2.292117,1.5907 -0.236946,1.03174 -7.844945,18.4671 -8.069569,18.5312 -0.125552,0.0358 -0.903983,-0.26408 -1.368891,-0.46594 z"
         id="path4" /><path
         id="path2"
         style="fill:#026d64;fill-opacity:1"
         d="m 139.37555,112.32887 c -0.3333,-0.0314 -0.26902,0.10379 -0.007,0.63717 0.70472,1.43451 5.42488,14.05526 5.68389,14.18415 0.1313,0.0653 -0.0265,-0.68255 0.26458,-0.97359 0.70888,-0.70885 1.66015,-0.8591 2.56263,-0.0801 l 0.74208,0.64131 v 8.28838 c 0,4.55889 0.0292,9.9984 0.0656,12.08764 0.0507,2.91473 -0.0538,3.76719 0.19998,3.66334 3.40012,-1.39149 10.43706,-3.95918 10.50066,-4.02198 0.0916,-0.0904 -11.21825,-27.5264 -11.8892,-28.8401 -1.40446,-2.74992 -4.37768,-4.89101 -7.64863,-5.50767 -0.20703,-0.0391 -0.36253,-0.068 -0.47387,-0.0785 z m -26.39374,2.01435 -2.02416,1.62987 c -2.18022,1.75529 -4.08004,2.77334 -5.66581,3.03651 l -0.9958,0.16536 1.22525,1.31052 c 1.08849,1.16321 1.07014,1.92229 0.93947,2.72748 -0.13797,0.85021 0.0604,0.75643 1.08573,1.27951 0.60161,0.30692 1.64839,0.98115 2.02106,1.19424 l 0.84853,0.26717 c 1.24512,0.45875 0.67403,-0.23767 0.91105,-0.86093 0.36154,-0.95067 1.02469,-0.84682 3.47421,-0.90382 3.72282,-0.0866 6.46766,-1.38418 9.15706,-3.74551 0.54071,-0.47474 0.98289,-0.957 0.98289,-1.07125 0,-0.11425 -0.38696,-0.27997 -0.8599,-0.36897 -1.53378,-0.28846 -3.9985,-1.63204 -5.80326,-3.16312 -1.76045,-1.49369 -1.76827,-1.49706 -3.53053,-1.49706 z m 31.63631,31.01464 -1.30483,0.40514 -1.37045,0.63459 -0.24495,0.17622 0.0269,0.0543 -0.16795,2.24327 -0.65215,1.5875 c -0.81967,1.55323 -3.08328,3.19752 -4.34703,4.31343 l -0.56895,0.5023 0.007,20.12228 -0.59893,20.10679 -0.32401,1.72702 c -1.47477,3.11347 -4.38924,5.38195 -7.71994,6.00894 -0.8857,0.16673 -9.1734,0.2682 -21.89427,0.2682 H 84.989201 v 1.5875 1.5875 h 29.765629 29.76614 v -15.70653 c 2.07998,-14.88086 0.24944,-30.4883 0.0971,-45.61845 z m -2.92023,1.21595 -0.0186,-0.0382 0.008,0.046 z m -0.0109,0.008 -0.0196,0.015 0.0413,0.10955 z" /><path
         style="fill:#080222;fill-opacity:1"
         d="m 47.511599,210.39008 c -0.312531,-0.1267 -0.669719,-0.38753 -0.79375,-0.57963 -0.124031,-0.1921 -0.285043,-12.5499 -0.357803,-27.46178 l -0.132292,-27.11251 -7.393187,-3.06038 c -9.124619,-3.7771 -8.63951,-3.20391 -6.734215,-7.95698 1.458368,-3.63814 2.230589,-4.62925 3.382867,-4.34176 0.99081,0.2472 1.616082,0.90138 1.61855,1.69338 0.0012,0.37762 -0.378323,1.61083 -0.843333,2.74045 -0.511698,1.24304 -0.747559,2.14083 -0.597452,2.27416 0.326621,0.29013 10.024943,4.27094 10.405157,4.27094 0.211167,0 0.293905,-3.38074 0.293905,-12.00923 0,-11.27675 0.02976,-12.04598 0.487936,-12.6118 0.644264,-0.79564 1.983592,-0.80627 2.767909,-0.022 l 0.580613,0.58059 0.06868,39.94476 0.06868,39.94475 h 15.343297 15.343297 v -25.63989 -25.63989 l -2.050521,-0.85247 C 65.008054,148.74636 65.214729,148.85596 65.503922,147.41 c 0.07564,-0.37819 1.975527,-5.12975 4.221976,-10.55902 l 4.084454,-9.8714 -2.017343,-1.01793 c -4.623812,-2.33312 -8.0863,-6.8827 -9.144154,-12.01506 l -0.327206,-1.5875 -3.520159,-0.0741 c -5.088902,-0.1071 -7.456502,0.71964 -10.017503,3.498 -1.354615,1.46958 -1.28289,1.32135 -4.936532,10.20213 -1.706259,4.14734 -3.347977,7.80851 -3.648263,8.13594 -1.094162,1.19304 -3.099565,0.40333 -3.099565,-1.22057 0,-1.11803 6.446806,-16.48693 7.673531,-18.29336 1.343162,-1.97789 3.11353,-3.49301 5.423343,-4.64139 2.898054,-1.44085 4.676579,-1.69787 11.78523,-1.70311 l 6.228979,-0.005 2.189168,-1.85209 c 1.204043,-1.01864 2.282913,-1.85208 2.397489,-1.85208 0.114576,0 0.523363,-0.29197 0.908414,-0.64882 0.555108,-0.51446 0.700094,-0.89281 0.700094,-1.82695 0,-1.10545 -0.06935,-1.21907 -1.124479,-1.84224 -4.222005,-2.493541 -6.548438,-6.599335 -6.548438,-11.55699 0,-5.368171 2.698289,-9.68861 7.521982,-12.044026 6.479223,-3.163814 14.35348,-0.499323 17.614301,5.960327 1.042764,2.065697 1.678164,4.985477 1.448444,6.655794 -0.41083,2.98709 -3.279106,5.267214 -6.079519,4.832893 -2.57127,-0.398782 -4.424783,-2.365412 -4.780232,-5.071961 -0.342133,-2.605155 -2.44487,-3.599671 -4.103662,-1.940879 -1.430124,1.430124 -0.950698,2.86059 1.404971,4.192018 1.62297,0.917305 3.6204,2.960454 4.412926,4.513933 0.769635,1.50861 1.346205,3.86574 1.346205,5.503561 0,0.75789 0.07481,1.57292 0.166236,1.81118 0.09143,0.23826 1.014163,1.07854 2.05052,1.86728 1.036357,0.78874 2.406457,1.85369 3.044666,2.36656 l 1.160381,0.93249 h 5.504958 5.504955 l 1.53675,-1.35798 c 0.84521,-0.74689 2.14848,-1.75404 2.89615,-2.23812 1.32205,-0.85595 1.94789,-1.83664 1.94789,-3.05235 0,-0.30671 -0.67844,-0.93102 -1.85174,-1.703991 -4.26237,-2.80806 -6.30781,-6.925209 -6.02118,-12.11969 0.30403,-5.509768 3.78367,-10.032187 9.10135,-11.828849 3.53624,-1.19477 8.07737,-0.64661 11.20699,1.352793 1.41864,0.906324 3.66194,3.183006 4.46283,4.529249 0.8839,1.485785 1.61087,3.843061 1.7945,5.8189 0.14892,1.602301 0.0906,1.945741 -0.55407,3.263417 -1.15413,2.358963 -3.36761,3.536348 -5.79557,3.082756 -2.48448,-0.464152 -3.89746,-2.007855 -4.50924,-4.926432 -0.43755,-2.08734 -1.03649,-2.780123 -2.40354,-2.780123 -1.75043,0 -2.95006,1.818672 -2.20814,3.347604 0.19233,0.396339 0.98504,1.092645 1.76159,1.547347 2.14123,1.25378 3.7058,2.935035 4.73937,5.092838 0.76482,1.5967 0.94178,2.30585 1.05644,4.233331 0.0757,1.27344 0.24296,2.51921 0.37158,2.76838 0.12862,0.24917 0.79761,0.83908 1.48665,1.3109 0.68904,0.47182 1.99855,1.48834 2.91001,2.25894 l 1.65721,1.40108 6.28029,0.005 c 7.16402,0.005 8.93368,0.25987 11.83654,1.70311 2.31133,1.14914 4.0803,2.66367 5.42641,4.6459 0.66888,0.98497 3.2311,6.81628 7.16603,16.30904 7.38268,17.81024 6.87628,16.448 6.47728,17.42415 -0.28509,0.69747 -1.02907,1.06811 -7.70826,3.84013 l -7.39271,3.06816 -0.13229,6.06964 c -0.0728,3.33831 -0.22324,6.20979 -0.33441,6.38107 -0.11117,0.17129 -0.61135,0.44649 -1.11152,0.61156 -1.1029,0.36399 -1.89589,0.03 -2.2709,-0.95629 -0.15132,-0.398 -0.25192,-8.53256 -0.25192,-20.36997 0,-16.77875 0.0575,-19.81861 0.38709,-20.45592 0.6512,-1.25928 1.81744,-1.43146 2.9716,-0.43872 l 0.74235,0.63854 0.0207,11.92778 c 0.0114,6.56028 0.0777,11.9848 0.14738,12.0545 0.10544,0.10543 10.23818,-3.97124 10.50018,-4.2245 0.0999,-0.0966 -11.15915,-27.34108 -11.86235,-28.70433 -1.24501,-2.41359 -3.84764,-4.405 -6.73281,-5.15162 -1.01385,-0.26236 -2.76378,-0.42959 -4.9004,-0.40807 l -3.25783,0.0328 c -1.57793,8.30304 -6.1863,12.89851 -12.48982,14.96069 -1.71567,0.56127 -2.65955,0.69783 -4.98224,0.72083 -2.82661,0.028 -2.87426,0.0183 -3.50572,-0.71398 -0.78199,-0.90682 -0.81565,-1.74763 -0.1007,-2.51505 0.64936,-0.697 0.40341,-0.64202 3.20894,-0.71728 2.65767,-0.0713 5.33123,-0.79545 7.1086,-1.92544 1.39361,-0.886 3.16591,-2.39569 3.16591,-2.6968 0,-0.11425 -0.38696,-0.2805 -0.8599,-0.36945 -1.53378,-0.28846 -3.99874,-1.6319 -5.8035,-3.16298 -1.76045,-1.4935 -1.76797,-1.49669 -3.53023,-1.49669 h -1.76601 l -2.02383,1.62937 c -2.18022,1.75529 -4.08005,2.77354 -5.66582,3.03671 l -0.99617,0.16533 1.1946,1.27713 c 1.37957,1.47486 1.51964,2.32174 0.54518,3.2962 -1.03684,1.03684 -2.04587,0.87184 -3.6088,-0.59009 -1.93442,-1.80942 -3.444165,-4.1761 -4.467915,-6.98389 -0.37089,-1.01722 -0.53597,-2.04063 -0.84878,-3.15021 l -0.31756,-0.65799 -0.44821,-0.13922 h -2.86565 c -4.159459,0 -6.099966,0.51076 -8.414863,2.21489 -2.028182,1.49306 -2.790885,2.68872 -4.764087,7.46846 -0.895206,2.16848 -3.54061,8.57564 -5.878677,14.23814 -2.338067,5.6625 -4.220704,10.32121 -4.183638,10.3527 0.130583,0.11092 10.500292,4.35497 10.640726,4.35497 0.07826,0 0.142292,-5.46823 0.142292,-12.15163 v -12.15163 l 0.723428,-0.56905 c 0.868538,-0.68319 2.075881,-0.55467 2.782301,0.29617 0.436462,0.52569 0.463021,2.84761 0.463021,40.48045 v 39.92277 H 114.75488 144.5205 V 190.976 c 0,-1.36308 -0.18002,-7.35242 0.0926,-11.82296 0.23154,-3.79733 0.69767,-6.51712 3.87618,-4.18161 v 17.1494 c 0,16.49082 -0.0194,17.17339 -0.50577,17.77403 l -0.50578,0.62462 -49.698915,0.0505 c -27.733546,0.0282 -49.950054,-0.0514 -50.267149,-0.17989 z m 29.49783,-90.91203 c 0.733839,-1.75989 2.188654,-3.84257 2.322683,-4.44563 l 0.153118,-0.68895 -0.38228,0.13922 c -0.446502,0.16261 -1.610624,0.35169 -2.796177,1.35747 -1.9247,1.63284 -4.247107,2.8594 -5.962991,3.14929 l -1.09582,0.18514 1.45016,1.29885 c 1.769848,1.58519 4.516152,3.04107 4.791986,2.54036 0.101787,-0.18478 0.785482,-1.77586 1.519321,-3.53575 z m -5.888804,-4.85248 c 0.688814,-0.3047 1.909323,-1.1179 2.712243,-1.80711 3.048098,-2.61643 2.671347,-2.47679 6.526134,-2.41896 3.285068,0.0493 3.504554,0.0187 4.885862,-0.6815 l 1.446278,-0.73309 -0.652528,-0.50518 c -0.358891,-0.27785 -1.18831,-0.89344 -1.843153,-1.36797 -1.719211,-1.24583 -2.362434,-2.5722 -2.543809,-5.24553 -0.276918,-4.081531 -1.056951,-5.461711 -4.251519,-7.522551 -1.802007,-1.162491 -2.294494,-1.634525 -2.850866,-2.732472 -1.818981,-3.589588 -0.04009,-7.811568 3.756355,-8.915223 3.748931,-1.089844 7.397252,1.393177 7.914791,5.386747 0.197074,1.520712 0.717472,2.183659 1.714122,2.183659 2.555805,0 1.721487,-5.456469 -1.28042,-8.373989 -0.634091,-0.616266 -1.833643,-1.454775 -2.66567,-1.863352 -1.342865,-0.65943 -1.79509,-0.741665 -4.026318,-0.732167 -3.050473,0.01299 -4.363173,0.522069 -6.460223,2.505371 -2.074712,1.962176 -2.930028,3.969563 -2.930028,6.876637 0,1.918196 0.111871,2.491556 0.760646,3.898453 0.826597,1.792515 2.583535,3.641696 4.292546,4.517916 1.971237,1.01066 2.74956,2.31304 2.74956,4.600891 0,2.63353 -1.066227,4.57349 -3.275602,5.95982 -0.599513,0.37618 -1.804398,1.30479 -2.677523,2.06359 -2.000447,1.7385 -2.888211,2.18879 -4.745754,2.4071 -1.192801,0.14019 -1.410761,0.29081 -1.312232,0.63312 0.06742,0.23423 0.208343,0.91483 0.373317,1.55254 l 0.299951,1.15947 1.563391,-0.26097 c 0.778649,-0.0804 1.831636,-0.28056 2.520449,-0.58525 z m 34.770675,-0.0689 c 0.80036,-0.37408 2.33839,-1.43828 3.41783,-2.36488 l 1.96263,-1.68474 2.88502,-0.0901 c 1.58676,-0.0495 3.1622,-0.0205 3.50097,0.0645 0.33878,0.085 1.54422,0.94348 2.67878,1.90766 2.31382,1.96639 3.82515,2.7252 5.8543,2.93936 1.53095,0.16157 1.66231,0.0253 2.06992,-2.14741 0.17251,-0.91959 0.15083,-0.95429 -0.59615,-0.95429 -1.66283,0 -3.39481,-0.76823 -5.11804,-2.27012 -0.93847,-0.81793 -2.32676,-1.88748 -3.08509,-2.37678 -2.16163,-1.39475 -2.75239,-2.51224 -3.03565,-5.74224 -0.37404,-4.265331 -1.26382,-5.698831 -4.90064,-7.895294 -1.27594,-0.770608 -1.71544,-1.226084 -2.28401,-2.367054 -2.72911,-5.476621 2.88896,-11.159797 8.32951,-8.426035 1.874,0.941647 3.40187,3.418335 3.40187,5.514474 0,0.731132 0.49525,1.741848 1.26112,1.741848 1.14002,0 2.00366,-0.981633 1.85356,-2.851499 -0.24985,-3.112595 -2.43888,-6.15302 -5.44394,-7.56127 -1.28318,-0.601332 -1.86113,-0.706338 -3.88845,-0.706485 -2.06563,-1.5e-4 -2.59988,0.10081 -4.03075,0.761701 -1.99815,0.922914 -3.79667,2.75513 -4.77942,4.868971 -0.58762,1.263917 -0.70337,1.883029 -0.70337,3.761863 0,1.869248 0.11675,2.500015 0.69149,3.735919 0.85884,1.846826 2.31867,3.48884 3.90513,4.39248 2.48437,1.41509 3.19817,2.5082 3.19565,4.893831 -0.003,2.78472 -0.88741,4.36791 -3.37999,6.05013 -0.66608,0.44953 -1.87437,1.38822 -2.6851,2.08598 -1.88564,1.62287 -2.91515,2.13446 -4.65718,2.31426 -0.85295,0.088 -1.37051,0.26101 -1.319,0.44083 0.0466,0.16277 0.23464,0.87465 0.4178,1.58195 l 0.33301,1.286 c 0.42708,0.55232 0.92621,0.57209 1.41212,0.59493 0.74057,-0.0615 1.9357,-1.12449 2.73607,-1.49857 z m 22.48133,41.18458 c -2.87069,-0.88493 -5.5919,-3.37131 -6.58154,-6.38596 -0.4928,-1.50116 -0.55396,-2.57873 -0.55396,-7.64499 0,-5.69377 1.4e-4,-5.69515 0.64943,-6.34444 l 0.64943,-0.53458 8.97218,-0.11485 c 8.74233,-0.11191 8.9904,0.0143 9.68583,0.56136 l 0.71365,0.56135 -0.0827,6.51625 -0.0827,6.51625 -0.83776,1.5875 c -0.83136,1.57537 -2.69595,3.58445 -4.05703,4.40844 -2.06898,1.25254 -5.9485,1.65248 -8.47492,0.87367 z m 5.54224,-3.88644 c 1.30928,-0.39846 3.08914,-2.15537 3.64637,-3.59936 0.38585,-0.99987 0.47693,-2.01909 0.47693,-5.33694 v -4.10104 l -6.43325,-0.0709 -6.43326,-0.0709 0.0833,4.5908 c 0.0831,4.58406 0.0844,4.59271 0.88326,5.88354 1.71217,2.76671 4.44738,3.71803 7.77669,2.70478 z"
         id="path1" /><path
         style="display:inline;fill:#000000;fill-opacity:0;stroke-width:0.00820354"
         d="m 75.137922,123.10287 c -0.559736,-0.0771 -1.618213,-0.5927 -2.72797,-1.32874 -0.66542,-0.44134 -1.186649,-0.84092 -1.743739,-1.33677 -0.629719,-0.56049 -1.405925,-1.25937 -1.400464,-1.26095 0.0035,-0.001 0.259223,-0.0445 0.568291,-0.0967 0.634357,-0.10704 0.77978,-0.1349 1.013137,-0.1941 0.999717,-0.2536 2.151695,-0.77031 3.322436,-1.49025 0.722903,-0.44454 1.378808,-0.91805 2.087901,-1.50729 0.394309,-0.32765 0.653482,-0.50769 1.022292,-0.71013 0.43098,-0.23656 0.820545,-0.39029 1.491994,-0.58877 0.153408,-0.0453 0.350456,-0.10842 0.437885,-0.14016 0.156975,-0.057 0.216389,-0.0691 0.246155,-0.0503 0.0093,0.006 -0.0013,0.0645 -0.06019,0.33006 -0.03935,0.17759 -0.08062,0.35025 -0.09172,0.38369 -0.07764,0.23395 -0.257884,0.57386 -0.824698,1.55529 -0.871363,1.50875 -1.16386,2.07053 -1.520571,2.92046 -0.656937,1.56527 -1.020088,2.4173 -1.279718,3.0025 -0.203832,0.45943 -0.207595,0.4659 -0.288576,0.4962 -0.05437,0.0203 -0.168116,0.0275 -0.252439,0.0159 z"
         id="path8" /><path
         style="fill:#de4a36;fill-opacity:1;stroke-width:0.185625"
         d="m 73.541164,122.51278 c -1.124103,-0.59132 -2.089443,-1.29755 -3.353696,-2.43857 l -0.970754,-0.87614 1.284806,-0.32026 c 1.359003,-0.33876 3.625458,-1.49498 5.130818,-2.65015 1.597859,-1.22616 3.99029,-2.19569 4.04871,-1.74202 0.0164,0.12741 -0.713896,1.40572 -1.36585,2.64563 -0.651958,1.23991 -1.521722,3.036 -1.952866,4.03142 -0.573093,1.32313 -0.627126,2.07235 -0.869985,2.07235 -0.182702,0 -1.367549,-0.41525 -1.951183,-0.72226 z"
         id="path9" /></g></g></svg>
