<?xml version="1.0" encoding="UTF-8" standalone="no"?>
<!-- Uploaded to: SVG Repo, www.svgrepo.com, Generator: SVG Repo Mixer Tools -->

<svg
   height="686.396"
   width="787.98553"
   version="1.1"
   id="Layer_1"
   viewBox="0 0 504.31074 439.29344"
   xml:space="preserve"
   xmlns="http://www.w3.org/2000/svg"
   xmlns:svg="http://www.w3.org/2000/svg"><defs
   id="defs8" />
<g
   id="g3"
   transform="translate(-3.8306117,-36.348389)">
	<path
   style="fill:#eb5a47;fill-opacity:1"
   d="M 135.142,421.664 C 120.63,419.937 106.183,417.649 91.833,414.811 69.323,410.356 47.048,404.546 25.14,397.383 l -14.478,40.604 c 81.048,26.654 166.751,36.158 251.67,27.917 83.921,-8.151 165.273,-33.458 239.003,-74.357 L 481.31,353.369 c -18.148,10.113 -36.796,19.201 -55.857,27.252 -14.107,5.955 -28.438,11.343 -42.96,16.143 -40.235,13.303 -81.927,22.131 -124.326,26.245 -41.045,3.984 -82.29,3.511 -123.025,-1.345 z"
   id="path1" />
	<path
   style="fill:#f9eacd"
   d="m 91.835,414.811 c 14.349,2.838 28.796,5.126 43.309,6.853 l 14.235,-46.906 c 34.197,-3.321 58.989,-40.961 56.133,-70.353 l 128.873,1.323 48.111,91.04 c 14.522,-4.805 28.854,-10.193 42.96,-16.147 l -63.451,-193.31 c 40.63,-3.946 58.588,41.668 58.588,41.668 L 453.268,225.805 435.533,43.178 C 312.994,55.075 266.981,130.461 254.04,158.297 c -3.08,6.623 -3.011,8.984 -4.418,9.97 0.014,0.121 0.023,0.24 0.034,0.356 3.562,36.671 -23.281,69.288 -59.954,72.847 -36.671,3.565 -69.287,-23.281 -72.849,-59.952 l -31.225,3.03 c -5.556,38.595 -48.515,66.442 -48.515,66.442 33.062,35.69 67.053,11.251 67.053,11.251 z"
   id="path2" />
	<path
   style="fill:#00857a;fill-opacity:1"
   d="m 189.703,241.47 c 36.674,-3.559 63.516,-36.175 59.954,-72.847 -0.011,-0.116 -0.02,-0.236 -0.034,-0.356 -1.168,0.821 -3.356,0.686 -9.212,1.254 l -123.556,11.997 c 3.561,36.67 36.177,63.516 72.848,59.952 z"
   id="path3" />
</g>
<g
   id="g8"
   transform="translate(-3.8306117,-36.348389)">
	<path
   id="path4"
   style="fill:#080222;fill-opacity:1"
   d="m 435.24805,36.359375 c -27.38561,2.622885 -54.56236,8.688282 -79.98268,19.328286 -24.48189,10.230124 -47.24073,24.757795 -66.36334,43.19367 -16.36774,15.745419 -30.181,34.228529 -40.15899,54.654679 -1.04375,2.15367 -1.94578,4.37948 -2.96243,6.53986 -0.75336,0.98707 -1.7364,1.91408 -2.92261,2.32697 -1.54343,0.31069 -3.13533,0.25075 -4.69131,0.49245 -51.12228,4.94383 -102.24478,9.89184 -153.360049,14.90354 -2.2763,0.20225 -4.29605,1.71197 -5.281787,3.74872 -0.828502,1.50731 -0.791052,3.30827 -1.157293,4.8746 -0.414617,2.09767 -0.926597,4.07381 -1.579252,6.14456 -2.911842,9.20823 -8.068901,17.82215 -14.051981,25.38641 -2.469172,3.12051 -5.191538,6.21296 -7.876953,9.0293 -6.588407,6.86041 -13.910755,12.9971 -21.693404,18.45479 -1.611935,1.16652 -2.744515,2.99655 -2.8457,5.00637 -0.208326,2.33725 0.934061,4.62707 2.69671,6.11867 8.05706,8.56251 18.125577,15.52777 29.533699,18.70604 9.622633,2.69876 19.967017,2.52699 29.568977,-0.16897 1.074264,-0.37116 2.375098,-0.30778 3.160436,0.61241 0.820964,0.77464 0.942616,1.95198 0.729932,3.00332 -2.986891,36.25651 -5.870248,72.52149 -8.815141,108.78144 l -1.546446,19.13828 C 67.43637,402.6911 49.389859,397.92545 31.600647,392.30001 c -1.863489,-0.52936 -3.666518,-1.29242 -5.563538,-1.68673 -3.322039,-0.46002 -6.764284,1.86024 -7.538151,5.1336 -4.875483,13.65022 -9.8259417,27.27775 -14.545833,40.97968 -0.7166139,3.50382 1.7962543,7.25986 5.2976045,7.96424 51.7059415,16.96798 105.6396305,27.18852 159.9909805,30.06579 38.49147,2.07407 77.17186,0.48118 115.38424,-4.54321 49.50901,-6.52828 98.23828,-19.01579 144.73957,-37.2464 25.16915,-9.85932 49.67713,-21.38555 73.37282,-34.38866 2.19044,-1.07135 4.52493,-2.59915 5.14057,-5.12324 0.68912,-2.25615 -0.0619,-4.66439 -1.28916,-6.58869 -6.57974,-12.51415 -13.07554,-25.07851 -19.77247,-37.52522 -2.03488,-2.86633 -6.3992,-3.64648 -9.29733,-1.64931 -12.98704,7.18083 -26.19973,13.85992 -39.69574,20.05414 -2.70721,1.25074 -5.45234,2.48735 -8.18944,3.71689 -19.47787,-59.3418 -38.95573,-118.68359 -58.4336,-178.02539 6.31722,1.78333 12.80888,3.52924 18.31289,7.25174 3.20293,2.04032 6.31605,4.58574 9.05625,7.32834 5.37713,5.39734 9.78097,11.72151 13.31055,18.45898 1.10447,2.15351 2.05083,4.39498 3.20027,6.51972 1.66398,2.35961 4.83874,3.24742 7.58473,2.64061 10.80591,-1.08028 21.63289,-2.01026 32.41969,-3.24332 3.38559,-0.88362 5.64945,-4.64446 4.88137,-8.0517 -5.88871,-60.78989 -11.77906,-121.58065 -17.71497,-182.365308 -0.5306,-3.254483 -3.70695,-5.817464 -7.0039,-5.617187 z m -6.13086,14.359375 c 0.99033,4.716481 1.11205,9.59829 1.67434,14.336721 L 445.8125,219.67188 c -6.99609,0.67903 -13.99219,1.35807 -20.98828,2.0371 -5.14107,-9.85134 -11.63279,-19.12525 -19.98645,-26.52295 -7.51717,-6.72928 -16.66145,-11.79751 -26.5946,-13.82078 -5.87955,-1.2121 -11.97345,-1.46482 -17.92392,-0.67093 -3.76551,0.84668 -6.21378,5.36018 -4.71007,8.95347 13.8552,42.39224 27.81092,84.75155 41.70392,127.13141 6.56685,20.00785 13.13371,40.01569 19.70057,60.02353 -10.28504,4.16707 -20.67659,8.07202 -31.16015,11.71094 -15.25597,-28.86147 -30.4758,-57.74403 -45.79883,-86.56836 -1.52804,-2.40308 -4.57599,-3.34921 -7.30155,-3.06454 -42.61471,-0.43427 -85.23078,-0.87598 -127.84494,-1.2753 -3.7626,0.23605 -6.83049,4.09427 -6.15095,7.81653 0.23185,2.82487 0.17276,5.92993 -0.13363,8.77308 -1.03074,9.65475 -4.78391,19.04623 -10.07656,27.22222 -2.10701,3.24828 -4.37256,6.18907 -6.9799,9.0268 -3.58497,3.89474 -7.65818,7.34967 -12.13943,10.17309 -0.88879,0.56425 -2.13302,1.2909 -3.05859,1.79687 -3.82694,2.07304 -7.92217,3.65797 -12.16406,4.64063 -0.80425,0.17887 -1.8872,0.40924 -2.81384,0.55284 -2.12984,0.43043 -4.57865,0.27888 -6.2841,1.85485 -1.67987,1.30889 -2.42597,3.39542 -2.89658,5.39693 l -11.95665,39.40827 c -10.42814,-1.39664 -20.78617,-3.05034 -31.126957,-4.94141 3.961907,-49.09441 7.952517,-98.18766 11.867187,-147.28515 -0.008,-3.97277 -4.10907,-7.40889 -8.02646,-6.50705 -2.41798,0.46344 -4.223468,2.295 -6.441454,3.23782 -3.569031,1.80429 -7.378928,3.13192 -11.29771,3.93133 -0.674806,0.13964 -1.619281,0.30909 -2.313773,0.4035 -5.399523,0.80626 -10.973132,0.56113 -16.246774,-0.88006 -1.028627,-0.27671 -2.300043,-0.67193 -3.398438,-1.07031 -1.837125,-0.67669 -3.647561,-1.48724 -5.309093,-2.35121 -1.495039,-0.77779 -2.808509,-1.55628 -4.228016,-2.45934 -1.382307,-0.886 -2.878629,-1.97206 -4.260983,-2.9982 -0.637615,-0.45568 -1.27523,-0.91135 -1.912845,-1.36703 11.638988,-9.36633 22.493899,-19.92573 30.859069,-32.37036 5.626745,-8.29444 10.092954,-17.43674 12.618601,-27.15932 0.152946,-0.53658 0.294045,-1.07641 0.440298,-1.61485 6.488282,-0.62826 12.976558,-1.25651 19.464848,-1.88477 1.26698,5.48519 2.79474,10.93537 5.1223,16.07585 6.44872,14.5274 17.77412,26.80497 31.69541,34.46246 10.82095,6.02097 23.19619,9.19267 35.57954,9.11693 15.10955,-0.0194 30.22131,-4.7259 42.5061,-13.5605 13.76367,-9.77751 24.03207,-24.39564 28.40727,-40.71455 2.14813,-7.8069 2.86307,-15.96972 2.40803,-24.04262 0.16989,-1.04183 0.75327,-1.97782 1.07241,-2.98518 1.38074,-3.63683 2.86694,-7.245 4.73022,-10.66723 14.68117,-28.94786 37.6168,-53.41987 64.82673,-70.982166 10.00438,-6.489169 20.74052,-12.111668 31.80175,-16.810687 9.16336,-3.889469 18.57565,-7.166048 28.20599,-9.873313 13.6578,-3.842848 27.68682,-6.48733 41.82003,-8.251414 z M 243.35547,176.0918 c -0.32975,3.74096 -0.71371,7.48577 -1.45117,11.17187 -0.39479,2.02473 -0.98833,4.2033 -1.64408,6.23595 -0.57457,1.76843 -1.25285,3.5921 -1.95743,5.20002 -4.99433,11.59146 -13.72899,21.53465 -24.58795,27.97028 -0.64335,0.36583 -1.54752,0.89278 -2.30726,1.28917 -10.57608,5.66056 -22.8803,7.91815 -34.79039,6.63466 -0.75812,-0.0966 -1.82168,-0.21557 -2.69155,-0.35911 -9.1036,-1.36183 -17.95344,-5.05563 -25.35728,-10.34987 -10.50066,-7.47715 -18.57884,-18.37006 -22.39519,-30.70667 -0.59392,-1.83963 -1.12639,-3.69746 -1.6927,-5.54529 39.62435,-3.84629 79.25389,-7.69829 118.875,-11.54101 z m 0.67969,135.53711 c 28.73758,0.29797 57.47525,0.58824 86.21289,0.88086 14.14974,26.77734 28.29948,53.55468 42.44922,80.33203 -23.43043,7.3357 -47.28888,13.14557 -71.4692,17.40972 -40.45811,7.11851 -81.67503,9.86012 -122.78001,8.12709 -10.70868,-0.45176 -21.41697,-1.21253 -32.07111,-2.26728 -1.36875,-0.95334 -1.86646,-2.91567 -1.09584,-4.40035 3.12511,-10.23956 6.23882,-20.48231 9.34194,-30.72856 6.32726,-1.25482 12.49751,-3.36361 18.16634,-6.45816 9.71789,-5.19198 17.97561,-12.87576 24.48006,-21.72147 8.23508,-11.24475 13.70536,-24.6103 15.07345,-38.51996 -0.0635,-1.25766 0.7401,-2.46756 1.9586,-2.82899 1.33951,-0.30252 2.74111,-0.0436 4.10572,-0.10525 8.54265,0.0934 17.08529,0.18688 25.62794,0.28032 z m 233.89257,51.61914 c 1.23746,0.002 1.55508,1.42999 2.06146,2.29569 l 12.1905,23.24337 c -32.86145,17.71971 -67.34968,32.52308 -102.92455,43.9829 -11.99311,3.8671 -24.20475,7.36799 -36.42327,10.46189 -8.0437,2.03802 -16.29999,3.95497 -24.42727,5.65609 -31.60095,6.64122 -63.66199,10.74104 -95.90265,12.34248 -20.78533,1.01367 -41.72409,0.99033 -62.54492,-0.10938 -14.37697,-0.77343 -28.86082,-2.07803 -43.1543,-3.88281 -20.42066,-2.58832 -40.724244,-6.21233 -60.799588,-10.86497 -15.058775,-3.47603 -30.034964,-7.58074 -44.82173,-12.18071 l -1.728287,-0.52854 9.892578,-27.75195 c 29.687821,9.25524 60.078753,16.2984 90.865607,20.72281 46.98627,6.82266 94.81812,7.69023 142.03961,2.81685 45.03657,-4.62753 89.54481,-14.49308 132.26188,-29.51367 27.01343,-9.47755 53.29336,-21.01942 78.61714,-34.36645 1.50377,-0.74618 2.94329,-1.64494 4.48139,-2.30603 0.10475,-0.0198 0.21037,-0.019 0.3164,-0.0176 z" />
	<path
   style="fill:#000003"
   d="m 403.659,155.661 c 5.924,-0.573 10.257,-5.838 9.682,-11.761 -0.575,-5.921 -5.843,-10.257 -11.763,-9.684 -5.924,0.577 -10.257,5.843 -9.682,11.767 0.575,5.92 5.842,10.255 11.763,9.678 z"
   id="path5" />
	<path
   style="fill:#000003"
   d="m 293.363,182.073 c 1.436,0.658 2.944,0.969 4.427,0.969 4.046,0 7.922,-2.315 9.719,-6.23 0.068,-0.146 0.137,-0.298 0.198,-0.444 2.298,-5.425 -0.236,-11.686 -5.661,-13.984 -5.415,-2.296 -11.668,0.229 -13.973,5.64 -2.399,5.338 -0.04,11.603 5.29,14.049 z"
   id="path6" />
	<path
   style="fill:#000003"
   d="m 288.063,168.046 c 0.003,-0.009 0.007,-0.015 0.011,-0.021 0.01,-0.022 0.017,-0.046 0.027,-0.068 z"
   id="path7" />
	<path
   style="fill:#000003"
   d="m 309.939,153.494 c 1.961,1.552 4.296,2.304 6.616,2.304 3.147,0 6.264,-1.386 8.37,-4.044 9.858,-12.449 33.42,-31.202 46.867,-35.344 5.629,-1.733 8.788,-7.703 7.054,-13.334 -1.736,-5.629 -7.705,-8.786 -13.336,-7.054 -17.913,5.517 -45.031,26.983 -57.311,42.488 -3.658,4.617 -2.879,11.328 1.74,14.984 z"
   id="path8" />
</g>
</svg>
