<?xml version="1.0" encoding="UTF-8" standalone="no"?>
<!-- Created with Inkscape (http://www.inkscape.org/) -->

<svg
   width="73.550522mm"
   height="135.33698mm"
   viewBox="0 0 73.550522 135.33698"
   version="1.1"
   id="svg1"
   xml:space="preserve"
   sodipodi:docname="tag-icon.svg"
   inkscape:version="1.4 (86a8ad7, 2024-10-11)"
   xmlns:inkscape="http://www.inkscape.org/namespaces/inkscape"
   xmlns:sodipodi="http://sodipodi.sourceforge.net/DTD/sodipodi-0.dtd"
   xmlns="http://www.w3.org/2000/svg"
   xmlns:svg="http://www.w3.org/2000/svg"><sodipodi:namedview
     id="namedview1"
     pagecolor="#ffffff"
     bordercolor="#000000"
     borderopacity="0.25"
     inkscape:showpageshadow="2"
     inkscape:pageopacity="0.0"
     inkscape:pagecheckerboard="0"
     inkscape:deskcolor="#d1d1d1"
     inkscape:document-units="mm"
     inkscape:zoom="1.5639973"
     inkscape:cx="139.06673"
     inkscape:cy="255.75491"
     inkscape:window-width="1920"
     inkscape:window-height="1009"
     inkscape:window-x="-8"
     inkscape:window-y="122"
     inkscape:window-maximized="1"
     inkscape:current-layer="layer1" /><defs
     id="defs1" /><g
     id="layer1"
     transform="translate(-74.563159,-119.66066)"><path
       style="fill:#080222;fill-opacity:1"
       d="m 84.745749,254.84694 c -4.889868,-0.65014 -9.008429,-4.5236 -9.91985,-9.3295 -0.171051,-0.90195 -0.265206,-14.36102 -0.262697,-37.55148 0.0042,-39.25141 -0.03831,-38.05217 1.444539,-40.70528 1.144522,-2.04777 20.429344,-26.14174 22.28439,-27.84156 2.104259,-1.92817 5.641009,-3.77908 8.480179,-4.43798 l 1.91823,-0.44517 v -6.55522 c 0,-6.55522 0,-6.55522 0.76667,-7.41327 1.03437,-1.15766 2.58232,-1.21298 3.6651,-0.13098 0.7276,0.72707 0.7276,0.72707 0.8599,7.37726 l 0.13229,6.65018 2.11666,0.57956 c 3.90785,1.07 6.55044,2.60121 9.19969,5.33061 1.96795,2.0275 20.12048,24.97067 21.11112,26.68257 1.62696,2.81151 1.57148,1.36538 1.57148,40.96151 0,23.06716 -0.096,36.60778 -0.26598,37.5186 -0.59739,3.20095 -2.95691,6.45625 -5.80206,8.00477 -2.73743,1.48989 -2.61508,1.48413 -30.70904,1.44596 -14.188278,-0.0193 -26.154059,-0.0825 -26.590621,-0.14058 z m 54.461791,-6.13414 c 1.42954,-0.70378 2.67657,-2.2181 3.08954,-3.75176 0.17577,-0.65276 0.24353,-13.49734 0.19765,-37.4639 -0.0698,-36.47058 -0.0698,-36.47058 -0.68364,-37.50927 -1.14922,-1.94466 -20.34777,-25.94489 -21.47341,-26.84405 -1.28186,-1.02394 -3.64409,-2.24385 -5.0987,-2.63307 l -0.99219,-0.26549 v 8.27116 8.27117 l 1.12448,0.33199 c 4.37964,1.29304 7.96091,4.95975 9.30132,9.52323 0.54814,1.86615 0.54814,5.57843 0,7.44458 -1.37969,4.69719 -4.91674,8.23424 -9.61393,9.61393 -1.86116,0.54668 -5.57676,0.5479 -7.44458,0.002 -5.97747,-1.74557 -10.050175,-7.17751 -10.029572,-13.37686 0.01232,-3.70786 1.180289,-6.62129 3.759912,-9.37892 1.78009,-1.90292 3.16061,-2.81483 5.59665,-3.6969 l 1.61718,-0.58557 v -8.16531 c 0,-9.46055 0.32623,-8.81334 -3.50428,-6.95209 -1.60323,0.77901 -2.60031,1.49499 -3.76209,2.70147 -0.8694,0.90286 -5.812608,6.99936 -10.984903,13.5478 -7.676381,9.71876 -9.477337,12.1525 -9.802398,13.24653 -0.347689,1.1702 -0.389248,5.95494 -0.327486,37.70313 0.07074,36.36284 0.07074,36.36284 0.799364,37.60232 0.400744,0.68171 1.162219,1.30256 1.61128,1.62232 1.827472,1.30127 1.235561,1.37202 29.164893,1.31761 26.19375,-0.051 26.17437,0.054 27.45491,-0.5765 z m -23.74673,-12.86361 c -4.51893,-0.69549 -8.89818,-3.47805 -11.31866,-7.15961 -1.12009,-1.70365 -1.12009,-1.70365 -2.40003,-1.70365 -1.42128,0 -2.68288,-0.53278 -3.097904,-1.30826 -0.149834,-0.27997 -0.272426,-1.00227 -0.272426,-1.60512 0,-1.40568 1.113039,-2.64287 2.37766,-2.64287 0.77632,0 0.82542,-0.0558 0.74796,-0.85055 -0.0717,-0.73541 -0.20772,-0.87588 -1.00477,-1.03759 -1.275938,-0.25888 -2.12085,-1.31138 -2.12085,-2.64193 0,-0.58353 0.122592,-1.29003 0.272426,-1.57 0.387011,-0.72314 1.648444,-1.3081 2.823284,-1.30924 0.97333,-9.5e-4 0.98787,-0.1046 1.92711,-1.78594 1.32151,-2.36567 4.06397,-5.22147 6.48655,-6.47087 2.73741,-1.41175 4.62716,-1.88484 7.54063,-1.88776 5.86322,-0.006 8.92509,2.10341 7.22085,5.00726 -0.34946,0.59544 -0.795,1.05562 -1.3961,1.24584 -0.60589,0.19174 -1.36927,0.11014 -2.20897,-0.14595 -3.06848,-0.93581 -5.11867,-0.79044 -7.87072,0.46949 -1.33383,0.61065 -4.21173,2.8491 -4.21173,3.34053 0,0.12561 2.98248,0.22838 6.62772,0.22838 7.32577,0 7.81239,0.0918 8.60476,1.62412 0.58252,1.12646 0.30454,2.4013 -0.70969,3.25472 -0.80506,0.67741 -0.80507,0.80408 -8.58996,0.8178 -7.74397,0.0137 -7.48974,-0.042 -7.78491,0.78565 -0.31107,0.87223 0.0702,0.78565 6.93691,0.78565 7.41066,0 7.90298,0.22909 8.56106,1.50168 0.74445,1.4396 0.23536,3.28375 -1.07079,3.87887 -0.46623,0.21243 -2.48356,0.31609 -6.15138,0.31609 -5.45763,0 -5.45763,0 -4.82551,0.67285 0.96821,1.03062 3.67029,2.38851 5.71014,2.55283 1.44624,0.1165 1.74876,0.17425 3.54603,-0.25641 2.60139,-0.62334 4.0166,-0.41641 4.76513,0.81122 0.82803,1.35803 0.54615,2.93859 -0.66569,3.73262 -0.57349,0.37576 -1.55953,0.7517 -2.80009,1.00401 -0.71688,0.14581 -1.56939,0.26205 -2.32713,0.3384 -1.24375,0.12532 -2.44112,0.14314 -3.32091,0.008 z m -0.136,-58.2443 c 5.72441,-3.11562 5.69167,-11.38179 -0.0575,-14.51086 -1.95304,-1.06298 -4.74116,-1.22617 -6.91776,-0.4049 -3.11116,1.1739 -5.21528,4.27366 -5.21528,7.68306 0,6.28413 6.66637,10.23932 12.19052,7.2327 z"
       id="path10" /><path
       style="fill:#eb5a47;fill-opacity:1;stroke-width:0.0935924"
       d="m 86.97384,249.1808 c -3.213833,-0.16829 -4.321127,-0.35613 -5.559941,-1.85799 -0.665281,-0.80656 -0.95009,-1.59331 -1.075965,-2.51265 -0.194416,-1.41994 -0.240856,-6.3853 -0.259257,-26.11881 -0.0029,-3.09127 -0.0075,-6.54495 -0.01511,-10.40418 -0.0594,-30.14669 -0.03463,-35.86716 0.257614,-37.07935 0.262403,-1.08839 1.62986,-3.04197 7.774334,-10.86338 6.911316,-8.79754 12.060805,-15.17729 13.315625,-16.434 1.12392,-1.12562 1.98914,-1.68968 4.12816,-2.75136 2.0723,-1.02857 2.403,-1.09927 2.73102,-0.37219 0.1557,0.3451 0.3967,1.06986 0.33431,8.16935 l 0.0322,7.66754 -1.32308,0.54029 c -2.53633,1.03573 -4.14753,1.89258 -5.81157,3.65656 -2.375648,2.51831 -3.533266,4.90788 -3.857949,8.13431 -0.267441,2.65761 0.18565,5.13146 1.393918,7.55759 0.790385,1.58706 1.471661,2.55381 2.763271,3.79786 1.92686,1.8559 4.42476,3.15927 6.7896,3.54924 1.2171,0.2007 4.11411,0.2129 5.32191,0.0125 3.26631,-0.54164 6.63552,-2.77996 8.64272,-5.63188 1.08994,-1.54865 1.79415,-3.43467 2.09283,-5.04281 0.22911,-1.2335 0.1803,-4.51097 -0.0503,-5.67221 -0.50558,-2.54649 -1.5828,-4.98509 -3.61566,-7.02371 -1.73389,-1.73881 -3.61355,-2.486 -5.78274,-3.39434 l -1.05291,-0.35111 0.0137,-8.25141 -0.0331,-8.26393 0.78271,0.11405 c 1.51717,0.22105 3.18201,1.20131 4.59301,2.18122 0.91422,0.63491 1.80347,0.79406 4.38005,4.21922 7.17105,9.53278 17.64955,22.44195 18.07037,23.39328 0.30689,0.69376 0.50086,2.40881 0.58667,11.41792 0.10331,10.84658 -0.0508,55.4135 -0.006,59.96937 0.0309,3.1231 -0.17708,3.53612 -0.36506,4.02608 -0.35993,0.93813 -1.00958,1.79046 -1.82199,2.48981 -0.56945,0.49022 -1.31871,0.92267 -1.89374,1.07349 -0.26661,0.0699 -1.08192,0.0896 -1.7511,0.14491 -1.50625,0.1244 -47.463359,0.0292 -49.728817,-0.0893 z m 32.02499,-13.42431 c 2.88959,-0.338 4.78677,-1.0101 5.38483,-1.82205 0.30681,-0.41655 0.41919,-0.62274 0.51378,-1.12151 0.25021,-1.31933 -0.69648,-2.76466 -1.81948,-3.04743 -0.67924,-0.17103 -1.1615,-0.16641 -2.83104,0.19155 -2.49238,0.53438 -3.8932,0.58338 -6.11317,-0.18934 -1.54791,-0.53879 -3.52645,-1.71972 -4.09806,-2.35539 -0.37226,-0.41397 0.11641,-0.49614 5.07513,-0.56251 4.89769,-0.0656 5.88817,-0.16335 6.50343,-0.47724 1.11262,-0.56761 1.5627,-2.25062 0.90294,-3.59912 -0.43778,-0.89479 -0.99,-1.20732 -2.7119,-1.33498 -0.48686,-0.0361 -3.4122,0.10354 -6.50075,0.0677 -6.43001,-0.0747 -6.34213,-0.22404 -6.33946,-0.96075 7.9e-4,-0.21745 0.17362,-0.42198 0.21249,-0.4831 0.20412,-0.32102 0.54288,-0.38832 7.25008,-0.4586 3.65478,-0.0383 6.96094,-0.0958 7.347,-0.12785 1.61345,-0.13381 1.431,-0.5172 2.52987,-2.67393 0.11032,-0.21651 0.006,-0.6391 -0.12318,-0.91922 -0.26062,-0.56627 -0.60683,-1.16038 -1.23847,-1.44834 -0.78167,-0.35636 -1.84541,-0.32856 -7.90687,-0.40888 -3.56854,-0.0473 -6.00629,0.14317 -6.12796,-0.12743 -0.10228,-0.22746 -0.15339,-0.22781 0.6825,-1.0413 1.88061,-1.83022 4.09159,-3.01006 6.30234,-3.40152 0.46484,-0.0823 1.14836,-0.18725 1.79868,-0.182 0.64019,0.005 1.24749,0.11931 1.67309,0.19481 0.39323,0.0698 1.44432,0.35744 1.75112,0.43843 0.66699,0.17607 1.56759,0.29587 2.09871,0.13814 0.50763,-0.15074 1.2191,-0.86538 1.52349,-1.53028 1.02757,-2.24449 -0.85673,-3.83934 -4.76062,-4.45647 -0.46824,-0.074 -1.4085,-0.2246 -2.64834,-0.15784 -3.04174,0.16379 -4.27444,0.36251 -6.85966,1.61299 -1.74087,0.84206 -2.65665,1.47846 -4.23104,3.05398 -0.67645,0.67694 -1.11893,1.33172 -1.56766,1.90115 -0.5047,0.64046 -0.99537,1.19485 -1.41293,1.97409 -0.28562,0.53302 -0.55629,1.08283 -0.72281,1.24173 -0.18159,0.17329 -0.38333,0.299 -0.66772,0.34061 -0.14098,0.0206 -0.31033,-0.0231 -0.53604,-0.006 -0.72617,0.056 -1.1905,0.23046 -1.589712,0.40531 -0.336422,0.14734 -0.631631,0.30939 -0.831376,0.5565 -0.266126,0.32923 -0.248003,0.18936 -0.400636,0.76873 -0.04645,0.17632 -0.04009,0.31461 -0.08869,0.68394 -0.02196,0.16689 -0.0405,0.34709 -0.03619,0.4916 0.0067,0.22419 0.01368,0.40982 0.05051,0.58411 0.127247,0.60222 0.399063,0.92095 0.495568,1.05556 0.343117,0.4786 0.546839,0.51442 0.959267,0.76692 0.216649,0.13263 0.711079,0.1361 0.941829,0.21723 0.35391,0.12443 0.52925,0.34166 0.61576,0.63175 0.0423,0.142 0.12023,0.63734 0.0806,0.93468 -0.0131,0.0987 -0.065,0.17184 -0.10107,0.20798 l -0.0859,0.086 -0.68539,0.001 c -0.757496,0.001 -1.153388,0.41772 -1.599669,0.84919 -0.08131,0.0786 -0.150176,0.20007 -0.215499,0.28884 -0.498948,0.67802 -0.554325,1.58352 -0.444763,2.31128 0.131846,0.87578 0.14758,0.85586 0.339715,1.01327 1.317186,1.07908 1.237922,0.91237 2.891506,1.10534 0.65376,0.0763 1.23854,0.0393 1.41873,0.14889 0.14443,0.0878 0.49158,0.72682 0.913,1.33907 1.42517,2.07056 2.71151,3.20486 4.67023,4.50974 2.17552,1.44931 4.3309,2.45618 6.87486,2.85846 0.57563,0.091 2.39771,0.0504 3.49487,-0.078 z"
       id="path11" /><path
       style="fill:#eb5a47;fill-opacity:1;stroke-width:0.00781652"
       d="m 379.79685,857.39408 c -1.2295,-0.17953 -1.97209,-0.41583 -2.84494,-0.90531 -0.22405,-0.12564 -0.62686,-0.37414 -0.61908,-0.38191 0.002,-0.002 0.0494,0.0194 0.10547,0.0475 1.02733,0.51479 2.20569,0.93229 3.46426,1.2274 0.11812,0.0277 0.20069,0.0503 0.1835,0.0502 -0.0172,-1.1e-4 -0.14734,-0.0172 -0.28921,-0.0379 z"
       id="path13"
       transform="scale(0.26458333)" /><path
       style="fill:#eb5a47;fill-opacity:1;stroke-width:0.00781652"
       d="m 379.89455,857.40447 c -0.43667,-0.0656 -0.61457,-0.0963 -0.88326,-0.15232 -0.81308,-0.1696 -1.44176,-0.41058 -2.16518,-0.82993 -0.16956,-0.0983 -0.46271,-0.27996 -0.45851,-0.28415 0.002,-0.002 0.0522,0.0209 0.1118,0.0508 0.9217,0.46166 2.06905,0.87104 3.24664,1.15845 0.12252,0.0299 0.23332,0.0576 0.24622,0.0615 l 0.0235,0.007 -0.0235,-1e-4 c -0.0129,-6e-5 -0.0569,-0.005 -0.0977,-0.0113 z"
       id="path14"
       transform="scale(0.26458333)" /><path
       style="fill:#eb5a47;fill-opacity:1;stroke-width:0.015633"
       d="m 373.17626,853.68499 c -0.29828,-0.24488 -0.4968,-0.44136 -0.56796,-0.56213 -0.22194,-0.37664 -0.36052,-0.98068 -0.63586,-2.77156 -0.13591,-0.88401 -0.18244,-1.28069 -0.22921,-1.95413 -0.0252,-0.36354 -0.0252,-1.51296 5e-5,-1.86815 0.14435,-2.02877 0.62859,-3.66966 1.49129,-5.05338 0.0764,-0.12248 0.10223,-0.15242 0.13169,-0.15242 0.0202,0 0.0367,0.004 0.0367,0.008 0,0.004 -0.0518,0.0941 -0.11501,0.19932 -0.77964,1.29693 -1.28078,2.79211 -1.43956,4.295 -0.16617,1.57275 0.0718,4.18391 0.54133,5.94056 0.23181,0.86721 0.47624,1.37894 0.94643,1.98136 0.0621,0.0796 0.10785,0.14432 0.10161,0.14381 -0.006,-5e-4 -0.1239,-0.0933 -0.26147,-0.20627 z"
       id="path15"
       transform="scale(0.26458333)" /><path
       style="fill:#eb5a47;fill-opacity:1;stroke-width:0.015633"
       d="m 373.17626,853.67228 c -0.27344,-0.22793 -0.64076,-0.30043 -0.71171,-0.42023 -0.19534,-0.32988 -0.69032,-0.20262 -0.92084,-1.67356 -0.25159,-1.60538 0.19583,-2.93638 0.19498,-4.10367 -6.1e-4,-0.83883 -0.27839,-0.8104 0.0626,-1.50077 0.17583,-1.68009 0.62476,-3.12435 1.34956,-4.34171 0.13813,-0.23201 0.18979,-0.30135 0.21739,-0.29182 0.0104,0.004 -0.0414,0.1071 -0.12433,0.24846 -0.78025,1.33041 -1.25361,2.78115 -1.41297,4.33035 -0.0341,0.33192 -0.0474,1.35212 -0.0238,1.83688 0.0723,1.48767 0.29448,3.00021 0.60499,4.11836 0.21075,0.75892 0.4525,1.26543 0.86041,1.80266 0.0636,0.0838 0.11024,0.1522 0.10353,0.15192 -0.007,-2.7e-4 -0.0966,-0.0709 -0.19978,-0.15687 z"
       id="path16"
       transform="scale(0.26458333)" /><path
       style="fill:#eb5a47;fill-opacity:1;stroke-width:0.00552711"
       d="m 376.09521,838.46102 c 0,-0.004 0.20101,-0.16248 0.30952,-0.24471 0.9126,-0.69155 1.80099,-1.09722 2.80501,-1.28087 0.25622,-0.0469 0.50128,-0.0754 0.84289,-0.0981 0.095,-0.006 2.36597,-0.0143 2.35994,-0.008 -0.004,0.004 -0.25691,0.0297 -0.35636,0.0366 -0.2664,0.0185 -0.54685,0.0265 -1.06674,0.0306 -0.4121,0.003 -0.58137,0.008 -0.7655,0.0225 -1.029,0.0797 -2.0299,0.36688 -2.99294,0.8586 -0.37508,0.19151 -0.73785,0.41 -1.07605,0.64808 -0.0499,0.0351 -0.0598,0.041 -0.0598,0.0356 z"
       id="path17"
       transform="scale(0.26458333)" /><path
       style="fill:#eb5a47;fill-opacity:1;stroke-width:0.00552711"
       d="m 376.16707,838.40633 c 0.0185,-0.0187 0.28122,-0.21979 0.38966,-0.2982 1.02739,-0.74291 2.03264,-1.13327 3.20572,-1.24483 0.27251,-0.0259 0.26412,-0.0257 1.35967,-0.0297 0.57455,-0.002 1.08567,-0.003 1.13582,-9.9e-4 l 0.0912,0.003 -0.12712,0.0125 c -0.26135,0.0256 -0.4151,0.0327 -0.86499,0.04 -0.99498,0.016 -0.99598,0.016 -1.24817,0.0389 -1.08682,0.0988 -2.15889,0.43888 -3.17827,1.00831 -0.21174,0.11829 -0.37017,0.21544 -0.58942,0.36144 -0.17059,0.1136 -0.18988,0.12577 -0.1741,0.1098 z"
       id="path18"
       transform="scale(0.26458333)" /></g></svg>
