<?xml version="1.0" encoding="UTF-8" standalone="no"?>
<!-- Created with Inkscape (http://www.inkscape.org/) -->

<svg
   width="124.77913mm"
   height="126.85002mm"
   viewBox="0 0 124.77913 126.85002"
   version="1.1"
   id="svg1"
   xml:space="preserve"
   xmlns="http://www.w3.org/2000/svg"
   xmlns:svg="http://www.w3.org/2000/svg"><defs
     id="defs1" /><g
     id="layer1"
     transform="translate(-43.45873,-85.050414)"><g
       id="g1"><path
         style="fill:#080222;fill-opacity:1"
         d="m 61.058518,211.62995 c -10.029422,-1.28696 -16.318625,-7.66452 -17.478738,-17.7243 -0.154017,-1.33554 -0.104333,-1.56752 0.481662,-2.24896 l 0.653392,-0.75982 12.445349,-0.13229 12.445348,-0.13229 -2.119254,-2.51354 c -8.393157,-9.95471 -13.38454,-23.05254 -15.073883,-39.55521 -0.377722,-3.68985 -0.462207,-14.01076 -0.142797,-17.44446 0.194256,-2.08828 0.288939,-3.46034 1.197502,-3.71215 l 0.513606,-0.14234 h 44.490703 44.490702 l 0.73741,0.73741 c 0.65389,0.65388 0.75585,0.99103 0.90018,2.97656 0.0895,1.23153 0.23807,3.27139 0.3301,4.53301 l 0.16732,2.29386 7.44496,0.0967 c 6.82724,0.0887 7.55953,0.14298 8.82587,0.65419 1.97476,0.79719 3.8275,2.24591 4.92804,3.85338 1.801,2.63058 1.85253,2.93142 1.96515,11.47259 0.0632,4.79506 -0.005,8.27814 -0.18176,9.23242 -0.61948,3.35111 -2.49323,6.02149 -5.24752,7.47857 -1.16889,0.61837 -16.25694,6.08652 -26.94514,9.76535 -0.92821,0.31948 -1.30878,0.71784 -2.68398,2.80941 -0.88133,1.34043 -2.55157,3.56824 -3.71164,4.95069 l -2.10922,2.51354 18.77296,0.13229 18.77297,0.13229 0.65348,0.75982 c 0.58533,0.68058 0.63584,0.9151 0.48429,2.24896 -0.61851,5.4437 -3.0717,10.34737 -6.6676,13.3278 -2.9666,2.45884 -6.48017,3.84934 -11.17796,4.42369 -2.79062,0.34118 -84.489351,0.31569 -87.161502,-0.0272 z M 151.9609,206.745 c 2.98762,-1.0694 5.41099,-2.80473 6.97233,-4.99275 1.27125,-1.78149 2.33359,-4.09501 2.64665,-5.76372 l 0.18584,-0.99061 h -56.91486 c -50.935618,0 -56.914866,0.0426 -56.914866,0.40522 0,0.74531 1.093594,3.68029 1.896743,5.09045 0.951566,1.67076 2.861129,3.68572 4.433757,4.67847 1.454783,0.91837 4.158446,1.93946 5.925618,2.23792 0.753458,0.12726 21.193828,0.21434 45.423048,0.19351 l 44.05312,-0.0379 z m -11.79489,-56.29918 0.18256,-2.01457 h -13.53025 -13.53024 v 2.7154 2.7154 l 3.85457,3.83304 c 2.12002,2.10817 4.02502,4.15455 4.23334,4.5475 0.60865,1.14814 0.44378,22.26907 0.085,23.05641 -0.53157,1.16668 -1.07912,1.23225 -10.28957,1.23225 -9.21045,0 -9.758,-0.0656 -10.28957,-1.23225 -0.20003,-0.43902 -0.29376,-4.10613 -0.29376,-11.49334 0,-8.90344 0.0679,-10.97671 0.37876,-11.56307 0.20831,-0.39295 2.11331,-2.43933 4.23333,-4.5475 l 3.85457,-3.83304 v -2.7154 -2.7154 H 82.824498 56.594255 l 0.182555,2.01457 c 0.249853,2.75722 1.080795,7.29979 2.003014,10.95001 2.776514,10.9897 7.676587,20.10211 14.476579,26.92136 l 2.440487,2.44739 h 22.711526 22.711534 c 2.48876,-2.21819 16.8412,-15.98741 19.04606,-40.31876 z m -22.6446,22.78598 v -9.06611 l -3.175,-3.16673 -3.175,-3.16673 -3.175,3.16673 -3.175,3.16673 v 9.06611 9.06612 h 6.35 6.35 z m 32.01601,-2.04689 c 7.71091,-2.72624 11.51927,-4.20111 12.16105,-4.70962 0.51392,-0.4072 1.26627,-1.38924 1.6719,-2.18231 l 0.7375,-1.44194 -0.076,-8.22346 -0.0761,-8.22346 -0.80074,-1.29454 c -0.49552,-0.8011 -1.29415,-1.59977 -2.09516,-2.09529 l -1.29441,-0.80075 -6.81034,0.29295 c -5.73646,-0.0618 -7.78446,-0.37725 -7.956,-0.10666 -0.11964,0.1886 -0.22559,3.86693 -0.22559,3.86693 l 5.22552,0.0938 c 5.65547,0.10152 6.15138,0.21364 7.82944,1.7702 1.52121,1.41106 1.85311,2.47964 1.977,6.36507 0.13179,4.13309 -0.16834,5.86142 -1.28575,7.40395 -1.03031,1.4223 -1.98885,1.86751 -10.57121,4.91 -4.00182,1.41867 -7.43773,2.66807 -7.63536,2.77644 -0.19763,0.10838 -0.82191,1.31622 -1.38731,2.68408 -1.08279,2.61961 -1.15823,2.8839 -0.82327,2.8839 0.11452,0 5.26021,-1.78617 11.43487,-3.96926 z m -1.16879,-8.87041 c 4.04979,-1.44429 6.49338,-2.45467 6.78976,-2.80743 0.39065,-0.46497 0.46302,-1.10671 0.46302,-4.1057 0,-3.42123 -0.0244,-3.57895 -0.64943,-4.20402 -0.64356,-0.64355 -0.69455,-0.64943 -5.63352,-0.64943 h -4.98409 l -0.58445,3.77031 c -0.49002,3.16111 -1.50321,7.96531 -2.0646,9.78958 -0.0784,0.25466 -0.0347,0.46302 0.097,0.46302 0.13174,0 3.08656,-1.01534 6.56627,-2.25633 z m -39.31389,-24.46658 v -6.35 H 82.764664 56.474587 l -0.168255,1.22755 c -0.04691,0.34225 -0.0895,1.24528 -0.120089,2.4196 -0.02976,1.14227 -0.04817,2.54122 -0.04817,3.9304 v 2.18562 1.42589 1.51094 h 26.458332 26.458335 z m 31.75,1.22755 c 0,-2.81734 -0.0757,-5.67484 -0.16825,-6.35 l -0.16826,-1.22755 h -13.59007 -13.59008 v 6.35 6.35 h 13.75833 13.75833 z m -69.0766,-16.81761 c -0.425369,-0.42537 -0.773397,-0.99743 -0.773397,-1.27125 0,-0.27382 0.526229,-1.24517 1.169399,-2.15855 1.797958,-2.55332 2.132163,-4.85202 1.022439,-7.03246 -0.224746,-0.44159 -1.066983,-1.57679 -1.871638,-2.52268 -2.294379,-2.69708 -2.833742,-4.08472 -2.833742,-7.29044 0,-2.540219 0.0447,-2.750641 0.990809,-4.66432 1.052275,-2.128415 2.725386,-3.920239 3.660514,-3.920239 0.685033,0 2.095552,1.376254 2.095552,2.044646 0,0.273817 -0.520901,1.237595 -1.157558,2.141728 -1.359958,1.93131 -1.890884,3.575495 -1.647022,5.100525 0.239252,1.4962 0.777533,2.46501 2.484379,4.47143 2.291273,2.69344 2.833742,4.0863 2.833742,7.27604 0,2.5161 -0.04823,2.7445 -0.983583,4.6578 -1.04553,2.13867 -2.72297,3.94116 -3.66774,3.94116 -0.301816,0 -0.896785,-0.34803 -1.322154,-0.77339 z m 25.420351,0.58569 c -1.587669,-0.58378 -1.734104,-2.05852 -0.401089,-4.03937 1.173491,-1.7438 1.724006,-3.60452 1.724006,-5.82709 0,-2.38476 -0.513036,-4.02489 -2.524248,-8.06979 -1.97026,-3.96255 -2.504089,-5.796669 -2.499695,-8.588405 0.0058,-3.666713 1.211596,-6.699947 3.736474,-9.39905 1.734075,-1.853731 2.504262,-2.193879 3.638941,-1.607115 1.6072,0.831117 1.48656,2.100134 -0.39416,4.145878 -2.617762,2.847471 -3.497064,5.88375 -2.655378,9.169169 0.232469,0.907419 1.131419,3.048713 1.997665,4.758433 2.134593,4.21307 2.774013,6.41507 2.785023,9.59088 0.0104,2.99421 -0.6501,5.41289 -2.11484,7.7446 -1.149095,1.82924 -2.216974,2.5174 -3.292699,2.12186 z m 25.379649,-0.58569 c -0.42537,-0.42537 -0.7734,-0.99743 -0.7734,-1.27125 0,-0.27382 0.52623,-1.24517 1.1694,-2.15855 1.79796,-2.55332 2.13217,-4.85202 1.02244,-7.03246 -0.22474,-0.44159 -1.06698,-1.57679 -1.87164,-2.52268 -2.29438,-2.69708 -2.83374,-4.08472 -2.83374,-7.29044 0,-2.540219 0.0447,-2.750641 0.99081,-4.66432 1.05228,-2.128415 2.72539,-3.920239 3.66052,-3.920239 0.68503,0 2.09555,1.376254 2.09555,2.044646 0,0.273817 -0.5209,1.237595 -1.15756,2.141728 -1.35996,1.93131 -1.89088,3.575495 -1.64702,5.100525 0.23925,1.4962 0.77753,2.46501 2.48438,4.47143 2.29127,2.69344 2.83374,4.0863 2.83374,7.27604 0,2.5161 -0.0482,2.7445 -0.98358,4.6578 -1.04554,2.13867 -2.72297,3.94116 -3.66774,3.94116 -0.30182,0 -0.89679,-0.34803 -1.32216,-0.77339 z"
         id="path1" /><path
         style="fill:#000000;fill-opacity:0;stroke-width:0.701575"
         d="m 428.6622,520.91929 v -23.50275 h 50.83239 50.83238 l 0.38511,2.28011 c 0.55051,3.25944 1.00956,35.87979 0.57263,40.69134 l -0.36634,4.03406 H 479.79029 428.6622 Z"
         id="path10"
         transform="scale(0.26458333)" /><path
         style="fill:#d9dbdd;fill-opacity:1;stroke-width:0.701575"
         d="m 241.42943,784.87833 c -18.0584,-0.47623 -19.57112,-1.31074 -30.81542,-6.21865 -9.77787,-4.26785 -19.42649,-13.73664 -24.4438,-24.53098 -3.91401,-8.42067 -6.36352,-14.9776 -5.25998,-16.08128 0.68442,-0.68449 47.36746,-1.08701 215.8653,-1.25116 213.01632,-0.2075 215.34849,-0.99356 215.34849,0.40226 0,2.49875 -4.40425,14.17172 -6.74797,18.31226 -7.55548,13.34791 -16.12219,21.91783 -32.20293,27.14929 l -7.04202,2.29095 -154.76505,-0.12127 c -84.39729,-0.0661 -160.67584,0.2928 -169.93662,0.0486 z"
         id="path12"
         transform="scale(0.26458333)" /><path
         style="fill:#00857a;fill-opacity:1;stroke-width:0.190464"
         d="m 104.73653,173.16362 v -9.16554 l 3.20154,-3.17903 3.20154,-3.17903 3.19737,3.18316 3.19738,3.18317 v 9.16141 9.16142 h -6.39891 -6.39892 z"
         id="path16" /><path
         style="fill:#d9dbdd;fill-opacity:1;stroke-width:0.188943"
         d="m 56.071298,139.16646 c 7.19e-4,-2.81026 0.05494,-5.68978 0.120475,-6.3989 l 0.119145,-1.28934 h 26.418753 26.418759 v 6.39891 6.39892 H 82.609196 56.06997 Z"
         id="path17" /><path
         style="fill:#d9dbdd;fill-opacity:1;stroke-width:0.188282"
         d="m 113.24246,137.76147 v -6.31465 h 13.61471 c 12.78772,0 13.55668,-0.24653 13.68798,0.0633 0.0769,0.18143 0.55699,3.28974 0.49802,6.58123 l -0.007,6.18471 H 127.0897 l -13.84675,-0.19993 z"
         id="path18" /><path
         style="fill:#d9dbdd;fill-opacity:1;stroke-width:0.701575"
         d="m 358.6165,336.22972 c 2.36635,-6.38431 6.56979,-15.18581 7.66072,-16.04061 0.54845,-0.42974 8.25849,-3.39453 17.13341,-6.5884 43.58622,-15.68565 46.84524,-17.66971 50.47523,-22.25295 4.33405,-5.47218 5.55293,-8.25757 5.84527,-22.9954 0.39151,-19.7382 -1.57889,-25.24652 -9.18842,-31.34178 -5.08504,-4.07313 -6.56309,-4.47974 -27.59074,-5.11248 -10.54311,-0.31725 -19.82679,-0.12715 -19.94827,-0.25967 -0.12149,-0.13251 0.20119,-12.27628 0.40088,-15.98824 0,0 49.44411,-3.62798 59.03074,0.26017 4.19436,1.70115 10.3947,7.60645 11.96015,11.76307 l 1.79472,4.76537 0.24805,31.57601 0.48363,30.70787 -1.87006,6.03733 c -1.14274,3.68925 -7.25362,7.34784 -11.13036,9.31467 -3.47114,1.76105 -21.33428,7.34874 -36.65729,12.78584 -16.75235,5.94428 -49.59141,17.40326 -49.87414,17.40326 -0.14782,0 0.40409,-1.81533 1.22647,-4.03406 z"
         id="path19"
         transform="matrix(0.26458333,0,0,0.26458333,43.45873,85.050414)" /><path
         style="fill:#eb5a47;fill-opacity:1;stroke-width:0.496088"
         d="M 112.78511,391.28965 C 95.738152,375.56186 86.371362,359.74026 75.816934,338.33222 65.010776,316.41358 56.821809,291.69203 51.906095,262.73894 50.795209,256.19592 49.180222,243.88232 49.360786,241.35 l 0.124022,-1.73935 h 99.341682 l 99.59854,-0.35079 0.17539,11.41733 -0.17539,9.83879 -8.32939,8.11432 c -13.3906,13.04485 -22.44702,22.19565 -23.119,24.24708 -0.73898,2.25595 -0.92738,70.37351 -0.26709,79.99871 0.49613,7.23185 1.00845,7.77604 4.28752,8.93398 3.22201,1.1378 32.10787,1.90278 51.90282,1.29979 18.16908,-0.55346 19.64425,-1.02136 21.36985,-3.65496 1.19708,-1.82697 1.32802,-13.83611 1.34258,-44.41991 0.0136,-28.49453 -0.41149,-41.31406 -1.66147,-43.73125 -0.4371,-0.84528 -7.20726,-7.88713 -15.20913,-16.01946 l -14.94058,-15.18416 0.0877,-10.24473 -0.17539,-10.24474 h 51.53822 50.83665 l 0.52694,1.36424 c 0.27376,0.70876 -0.46637,4.04312 -0.77091,7.3173 -4.16347,44.76209 -21.26874,89.18358 -47.83637,124.46056 -5.71704,7.59119 -7.87062,11.1033 -16.6229,19.29608 l -7.53785,7.91613 -85.82853,0.25427 -85.68947,-0.12402 z"
         id="path21"
         transform="matrix(0.26458333,0,0,0.26458333,43.45873,85.050414)" /></g></g></svg>
