<svg xmlns="http://www.w3.org/2000/svg" width="256" height="256" viewBox="0 0 100 100"><rect width="100" height="100" rx="20" fill="#080222"></rect><path d="M50.86 84.15L50.86 84.15Q44.63 84.15 40.45 81.94Q36.27 79.72 34.13 75.09Q32.00 70.46 31.75 63.08L31.75 63.08L44.30 61.19Q44.38 65.46 45.08 68.08Q45.78 70.70 47.05 71.85Q48.32 73.00 50.12 73.00L50.12 73.00Q52.42 73.00 53.12 71.44Q53.81 69.88 53.81 68.16L53.81 68.16Q53.81 64.06 51.84 61.23Q49.88 58.41 46.52 55.53L46.52 55.53L40.77 50.53Q37.00 47.33 34.42 43.28Q31.84 39.22 31.84 33.23L31.84 33.23Q31.84 24.78 36.84 20.32Q41.84 15.85 50.45 15.85L50.45 15.85Q55.78 15.85 59.02 17.65Q62.26 19.45 63.94 22.37Q65.62 25.28 66.24 28.52Q66.85 31.75 66.93 34.71L66.93 34.71L54.30 36.26Q54.22 33.31 53.94 31.14Q53.65 28.97 52.75 27.78Q51.84 26.59 49.96 26.59L49.96 26.59Q47.91 26.59 46.97 28.31Q46.02 30.03 46.02 31.75L46.02 31.75Q46.02 35.44 47.79 37.78Q49.55 40.12 52.42 42.66L52.42 42.66L57.91 47.50Q62.26 51.19 65.25 55.86Q68.25 60.54 68.25 67.42L68.25 67.42Q68.25 72.10 66.11 75.91Q63.98 79.72 60.09 81.94Q56.19 84.15 50.86 84.15Z" fill="#fff"></path></svg>