<?xml version="1.0" encoding="UTF-8" standalone="no"?>
<!-- Created with Inkscape (http://www.inkscape.org/) -->

<svg
   width="79.878578mm"
   height="39.363976mm"
   viewBox="0 0 79.878578 39.363976"
   version="1.1"
   id="svg1"
   xml:space="preserve"
   xmlns="http://www.w3.org/2000/svg"
   xmlns:svg="http://www.w3.org/2000/svg"><defs
     id="defs1" /><g
     id="layer1"
     transform="translate(-62.060994,-170.29177)"><path
       style="fill:#080222;fill-opacity:1"
       d="m 106.48542,203.85042 c 0,-6.23829 -0.0279,-6.29433 -2.5057,-5.03109 -1.18194,0.6026 -1.32699,0.55209 -1.09291,-0.38055 0.2773,-1.10485 8.75555,-1.05397 8.96836,0.0538 0.18093,0.94188 0.20689,0.9345 -1.06767,0.30389 -2.49165,-1.23277 -2.5731,-1.07563 -2.6538,5.12006 l -0.0715,5.49011 h -0.78838 -0.78838 z m 6.35,0.66146 v -4.8948 h 0.92604 c 0.92604,0 0.92604,0 0.92896,1.52136 l 0.003,1.52135 1.25385,-1.37169 c 1.59575,-1.74573 2.44448,-2.05651 2.44448,-0.89509 0,0.5802 -0.12538,0.81157 -0.43978,0.81157 -2.18911,0 -3.26439,1.73733 -3.26439,5.27428 v 2.92781 h -0.92604 -0.92604 z m 7.26401,4.24536 c -1.80934,-1.80934 -0.54732,-4.68877 2.52557,-5.76234 1.51431,-0.52905 1.72998,-0.68961 1.80506,-1.34387 0.22767,-1.98404 -2.39889,-1.96721 -3.15451,0.0202 -0.3141,0.82616 -0.858,0.44855 -0.72347,-0.50229 0.21014,-1.48524 3.89614,-2.13395 5.12766,-0.90243 0.63555,0.63555 0.64943,0.74015 0.64943,4.89479 v 4.24536 h -0.92604 c -0.84713,0 -0.92604,-0.0659 -0.92604,-0.7734 v -0.7734 l -0.7734,0.7734 c -1.02916,1.02916 -2.64354,1.08469 -3.60426,0.12397 z m 3.69268,-0.95837 c 0.61105,-0.7262 0.68498,-1.04078 0.68498,-2.91488 v -2.10082 l -1.27339,0.64528 c -1.62996,0.82596 -1.93676,1.21538 -2.10025,2.66589 -0.26199,2.32438 1.32207,3.32863 2.68866,1.70453 z m 5.31763,1.03328 c -2.26779,-1.78384 -2.35383,-6.64577 -0.15041,-8.49981 1.69732,-1.42821 5.38954,-0.4999 4.51454,1.13506 -0.40133,0.74988 -0.70281,0.65964 -0.88789,-0.26574 -0.38424,-1.92119 -2.56533,-1.46581 -3.30313,0.68965 -1.49951,4.3808 1.84971,9.62656 3.6609,5.73394 0.46245,-0.99389 0.69176,-1.07342 0.93007,-0.32255 0.52176,1.6439 -3.1287,2.81584 -4.76408,1.52945 z m 6.12707,0.39813 c -0.097,-0.097 -0.17639,-2.71639 -0.17639,-5.82083 V 197.765 h 0.92604 0.92604 l 0.0122,3.10886 0.0121,3.10885 1.44983,-1.5875 c 0.7974,-0.87313 1.51921,-1.85539 1.60403,-2.18281 0.10989,-0.42427 0.35092,-0.59532 0.83888,-0.59532 0.68467,0 0.68467,0 -0.10302,0.8599 -1.91675,2.09245 -1.85108,1.84972 -0.93407,3.45249 0.79814,1.395 2.14713,4.68429 2.14713,5.23542 0,1.09427 -1.67818,0.0211 -2.10431,-1.34572 -1.54272,-4.94824 -2.92278,-5.36613 -2.92278,-0.88504 0,2.44896 -0.64249,3.32935 -1.67569,2.29615 z M 68.914584,197.90954 c -6.065727,-1.14141 -6.716676,-1.69001 -6.834721,-5.76009 -0.108391,-3.73718 0.220859,-4.75706 1.757883,-5.44521 l 1.028497,-0.46047 -0.882305,-1.14932 c -5.359854,-6.98191 3.644584,-14.30879 14.191063,-11.54721 3.599441,0.94251 4.51979,1.88898 4.709369,4.84303 l 0.124675,1.94269 0.691832,-0.65208 c 2.635042,-2.48364 8.38959,-2.94987 12.099302,-0.98027 l 1.353303,0.71851 0.16095,-2.08716 c 0.30233,-3.92054 1.045792,-4.56464 5.289488,-4.58257 1.72717,-0.007 3.38295,-0.15827 3.98407,-0.36327 0.61265,-0.20893 1.538,-0.29045 2.28826,-0.2016 1.05635,0.12511 1.3387,0.0603 1.74951,-0.4017 2.13044,-2.39581 6.80848,-1.80724 8.49387,1.06866 2.32662,3.97008 -0.87048,10.89027 -4.88067,10.56432 l -1.37459,-0.11173 0.14778,5.84141 c 0.20297,8.02318 0.77385,7.2966 -5.73305,7.2966 h -5.30483 l -0.16533,0.82668 c -0.23897,1.19484 -2.702581,0.99869 -3.874531,-0.30848 -0.675329,-0.75326 -0.787832,-0.79401 -1.190625,-0.43135 -2.72714,2.45544 -9.98038,2.12692 -13.077419,-0.59232 l -0.964044,-0.84644 -1.363453,0.93789 c -2.793602,1.92166 -8.011547,2.71184 -12.424284,1.88148 z m 8.622181,-2.91641 c 1.905765,-0.57355 3.53158,-1.68075 4.340093,-2.95564 0.619751,-0.97725 0.777623,-1.09739 0.906875,-0.69015 1.650976,5.20176 12.187069,5.5335 15.268291,0.48074 0.493916,-0.80995 0.493916,-0.80995 0.494905,0.72343 0.0018,2.71461 3.954701,4.19425 5.929481,2.21947 0.61277,-0.61277 0.61277,-0.61277 1.15858,0 2.40017,2.69463 5.88624,0.42719 5.85304,-3.80697 -0.0568,-7.24188 -0.35158,-11.64144 -0.8145,-12.15522 -0.41565,-0.46132 -0.4042,-0.53458 0.19144,-1.22488 0.84871,-0.9836 1.73262,-0.5617 1.52347,0.72716 -0.3732,2.29976 2.2657,3.20235 4.01746,1.37411 3.14347,-3.2807 2.02788,-8.90284 -1.76732,-8.90669 -1.64965,-0.002 -3.65524,1.26657 -3.65524,2.31141 0,0.42169 -0.14061,0.41499 -1.5435,-0.0736 -1.35306,-0.47125 -2.67066,-0.21635 -3.65326,0.70675 -0.34324,0.32246 -0.62408,0.46559 -0.62408,0.31806 0,-0.78729 -3.28868,-1.18412 -4.96639,-0.59927 -1.104683,0.3851 -1.17174,0.63588 -1.303908,4.87631 -0.144604,4.63941 -0.176561,4.73369 -1.107121,3.26635 -4.000653,-6.30837 -14.806269,-4.00869 -15.817117,3.36625 l -0.165215,1.20538 -0.953978,-0.91438 c -1.172457,-1.12378 -2.27881,-1.68199 -5.84877,-2.95096 -4.200164,-1.49299 -5.117515,-2.15019 -3.824009,-2.73955 1.665397,-0.75881 5.028167,-0.22554 6.758292,1.07173 2.333657,1.74981 3.283425,1.05373 3.283425,-2.40639 0,-5.92902 -13.919308,-6.53666 -16.559447,-0.7229 -1.923724,4.23617 0.233586,6.65206 8.521164,9.54252 4.317636,1.50586 3.865469,3.05256 -0.825259,2.82291 -2.062515,-0.10098 -5.56383,-1.61943 -6.233807,-2.70347 -0.295902,-0.47878 -1.666265,-0.24913 -2.085565,0.3495 -0.625326,0.89278 -0.586456,5.52405 0.05114,6.09345 1.825988,1.63068 9.888676,2.46661 13.450827,1.39456 z m -9.442538,-1.18503 c -3.432192,-0.72409 -3.413734,-0.70714 -3.408925,-3.13001 0.0053,-2.68294 0.215872,-3.00992 1.332903,-2.07 3.032216,2.55144 8.746024,3.34797 10.614311,1.47968 1.718551,-1.71855 0.4726,-2.98734 -4.542932,-4.62621 -5.289213,-1.7283 -7.119224,-3.37526 -6.808962,-6.12789 0.436482,-3.87246 7.203448,-5.86889 13.158962,-3.88223 l 1.455209,0.48544 0.07685,2.18281 c 0.08779,2.49377 0.09668,2.48768 -1.887094,1.29312 -3.145537,-1.89415 -8.033283,-1.75939 -8.533913,0.23528 -0.228188,0.90917 0.002,1.36056 1.008713,1.97788 0.851739,0.5223 1.434379,0.75593 5.554374,2.22726 11.379862,4.06397 4.505541,12.5973 -8.019492,9.95487 z m 19.352227,0.0943 c -5.983638,-2.17056 -6.118363,-11.54265 -0.203401,-14.14949 5.506919,-2.42701 10.887356,1.11538 10.881441,7.16415 -0.0055,5.63974 -5.135732,8.99582 -10.67804,6.98534 z m 5.257724,-3.2233 c 3.171431,-2.36366 1.674766,-8.52454 -2.07087,-8.52454 -3.460399,0 -5.241581,4.81062 -2.888704,7.80182 1.166799,1.48335 3.485624,1.82125 4.959574,0.72272 z m -2.788484,-0.51163 c -2.725707,-0.50203 -2.695325,-6.32785 0.03567,-6.84019 2.182124,-0.40937 3.454136,1.08277 3.256167,3.81965 -0.164274,2.27107 -1.367357,3.375 -3.29184,3.02054 z m 9.956782,3.76303 c -0.476439,-0.57407 0.01678,-18.70115 0.525514,-19.31414 0.22451,-0.27052 0.8116,-0.39799 1.82035,-0.39524 2.14027,0.006 2.2661,0.14012 2.01552,2.15127 -0.11521,0.92462 -0.28082,5.31254 -0.36802,9.75092 l -0.15855,8.0698 -1.74429,0.0773 c -1.33456,0.0591 -1.82563,-0.0207 -2.090524,-0.33989 z m 6.679084,0.2254 c -0.35765,-0.15051 -0.43154,-9.66987 -0.10136,-13.05967 l 0.16751,-1.71979 h 1.57068 c 2.04996,0 2.02974,-0.0861 1.9397,8.25697 l -0.0708,6.5597 -1.5875,0.051 c -0.87312,0.028 -1.73632,-0.0117 -1.91823,-0.0882 z m 7.17912,-15.05388 c -0.42012,-0.64119 -0.41243,-0.70048 0.17134,-1.32188 0.69064,-0.73515 0.68441,-0.75198 -0.40514,-1.09387 -2.05702,-0.64547 -2.10488,-3.76869 -0.0696,-4.54331 3.543,-1.34848 5.11859,3.77502 2.12274,6.90275 -0.86445,0.9025 -1.25692,0.91465 -1.81933,0.0563 z m -6.77888,-1.84645 c -1.74787,-0.97995 -0.96217,-3.10852 1.19996,-3.25087 1.44294,-0.095 2.30241,0.56156 2.30241,1.75886 0,1.45369 -2.02901,2.31804 -3.50237,1.49201 z"
       id="path1" /></g></svg>
