<?xml version="1.0" encoding="UTF-8" standalone="no"?>
<!-- Created with Inkscape (http://www.inkscape.org/) -->

<svg
   version="1.1"
   id="svg1"
   width="1108.1533"
   height="561.68872"
   viewBox="0 0 1108.1533 561.68872"
   xmlns="http://www.w3.org/2000/svg"
   xmlns:svg="http://www.w3.org/2000/svg">
  <defs
     id="defs1" />
  <g
     id="g1"
     transform="translate(-435.71089,-1322.281)">
    <g
       id="g28">
      <path
         d="m 1494.3074,1739.1287 c -3.66,0.1312 -8.4749,0.8868 -13.5391,2.2344 l -8.2539,2.1953 -0.3593,14 c -0.1977,7.7 -1.0987,17.6 -2.002,22 -0.9033,4.4 -2.347,11.6 -3.209,16 -0.862,4.4 -4.4481,21.0953 -7.9687,37.0996 -6.8897,31.3194 -9.4272,47.8287 -7.6289,49.627 0.7559,0.7559 4.6296,0.5862 13.2871,-0.5801 6.7209,-0.9054 12.438,-1.8639 12.7051,-2.1309 0.267,-0.2671 0.8229,-4.4293 1.2363,-9.25 0.7735,-9.0182 5.5224,-34.6235 8.5234,-45.959 0.8819,-3.3312 19.0749,-15.3066 23.2539,-15.3066 2.9967,0 7.168,3.8443 7.168,6.6055 0,7.4302 -5.3079,12.5245 -17.4863,16.7832 -3.8241,1.3372 -7.1068,2.8888 -7.293,3.4472 -0.6949,2.0848 3.9762,24.9125 6.4375,31.4629 2.7755,7.3863 6.048,11.9047 10.7988,14.9043 5.5374,3.4963 16.3336,1.0035 28.2539,-6.5215 5.2397,-3.3077 6.6954,-5.7444 4.9004,-8.1992 -1.26,-1.7227 -1.5062,-1.7205 -6.3398,0.018 -2.7657,0.9946 -5.7232,1.5406 -6.5723,1.2148 -3.6578,-1.4037 -15.4103,-27.9306 -13.4746,-30.414 0.514,-0.6594 2.587,-1.7334 4.6055,-2.3867 12.313,-3.9847 20.5059,-11.4532 21.6445,-19.7325 1.3178,-9.5813 -3.0729,-17.0937 -11.4453,-19.58 -8.6046,-2.5553 -22.8286,1.3479 -34.7168,9.5273 -4.213,2.8985 -6.1664,3.5441 -5.6621,1.8711 0.083,-0.275 1.7746,-8.375 3.7578,-18 5.5494,-26.9313 7.723,-44.8872 5.9844,-49.418 -0.4414,-1.1502 -2.9455,-1.6429 -6.6055,-1.5117 z m -367.0781,5.1953 c -9.7948,0.1501 -14.9384,0.5606 -15.6133,1.2363 -0.668,0.6689 -0.4088,3.33 0.7773,8 2.0625,8.12 1.362,7.9028 16.3614,5.0547 4.8035,-0.912 11.3285,-1.5226 14.5,-1.3574 l 5.7656,0.3008 -0.3457,7 c -0.3916,7.9184 -3.954,27.423 -10.5,57.5 -6.2947,28.9225 -9.5437,45.4284 -10.4844,53.25 l -0.8125,6.748 h 6.0723 c 7.2648,0 23.8081,-1.9022 24.7129,-2.8359 0.3531,-0.3644 1.1492,-6.5121 1.7695,-13.6621 1.5136,-17.4473 3.8893,-30.9769 12.207,-69.5 3.8595,-17.875 7.2368,-33.5744 7.5039,-34.8887 0.4702,-2.3136 0.6987,-2.3698 7.1817,-1.7519 3.6827,0.3509 11.0589,0.9287 16.3906,1.2851 l 9.6934,0.6485 0.7519,-2.8965 c 0.4139,-1.5932 0.7777,-5.1465 0.8067,-7.8965 l 0.053,-5 -37,-0.7754 c -2.1432,-0.045 -4.2324,-0.088 -6.2676,-0.1269 -19.282,-0.3713 -33.7286,-0.4821 -43.5234,-0.3321 z m 144.3848,51.6524 c -4.7152,0.1795 -10.546,3.2487 -16.625,9.1758 -2.7674,2.6978 -5.2912,4.9062 -5.6094,4.9062 -0.3183,0 -0.8338,-2.4637 -1.1446,-5.4746 -0.3107,-3.0109 -0.8506,-5.9359 -1.1992,-6.5 -1.4188,-2.2956 -33.5156,-0.2418 -33.5156,2.1445 0,0.4191 1.575,3.6268 3.5,7.1289 4.314,7.8483 4.3426,9.6059 0.4395,27.8731 -6.4399,30.1393 -8.425,45.0088 -6.2911,47.1426 0.3566,0.3567 1.5941,0.455 2.75,0.2167 1.1558,-0.2382 6.4083,-0.7168 11.6719,-1.0624 5.2636,-0.3458 10.1115,-0.964 10.7735,-1.3731 0.7136,-0.4411 1.5981,-5.2437 2.1738,-11.8047 0.9539,-10.8706 5.9012,-38.4843 8.0742,-45.0683 0.6585,-1.9955 2.7465,-4.5416 5.1562,-6.2872 4.6565,-3.3731 5.276,-3.1293 9.2481,3.6485 1.4231,2.4283 3.2622,4.416 4.0859,4.416 2.4756,0 9.2522,-3.8561 13.4629,-7.6602 4.2635,-3.8518 4.8838,-6.6124 2.9785,-13.2558 -1.6158,-5.634 -5.2147,-8.3456 -9.9296,-8.166 z m 71.3105,0.455 c -2.2383,-0.027 -2.9855,0.8499 -3.8965,2.6114 l -1.5801,3.0566 -4.7148,-2.7695 c -4.3019,-2.5288 -5.5864,-2.7715 -14.7129,-2.7715 -9.0319,0 -10.4398,0.2583 -14.5352,2.666 -6.2316,3.6636 -13.6428,11.8514 -16.3984,18.1152 -4.7028,10.6904 -6.0664,18.271 -6.0664,33.7188 0,14.0948 0.08,14.6452 2.8691,19.6777 3.6023,6.4998 7.321,10.0941 12.2676,11.8575 7.6879,2.7407 14.13,1.4715 23.166,-4.5625 3.2727,-2.1854 6.3724,-3.9727 6.8887,-3.9727 0.5163,0 1.7003,1.5993 2.6328,3.5547 3.5953,7.5395 13.3835,8.1872 26.4727,1.75 8.4432,-4.1523 13.2031,-8.2031 13.2031,-11.2363 0,-3.0537 -2.4164,-3.5641 -7.5703,-1.5957 -6.2932,2.4034 -7.4277,1.6851 -7.4277,-4.6915 0.01,-11.2999 4.6075,-39.7955 8.4414,-52.2812 2.4469,-7.9686 2.4369,-7.9837 -6.1934,-10.3125 -6.8774,-1.8558 -10.6074,-2.7874 -12.8457,-2.8145 z m 75.543,0.127 c -11.3402,0 -11.6937,0.07 -19.1582,3.7598 -8.1409,4.0242 -16.1626,11.6328 -19.8184,18.7988 -7.4527,14.6084 -8.3064,37.2693 -1.8848,50.0547 2.6752,5.3263 11.3087,12.6987 15.7364,13.4375 2.0223,0.3374 4.1277,0.7647 4.6777,0.9512 3.9985,1.3562 18.8003,-1.0783 24.6641,-4.0567 7.0384,-3.575 16.7559,-10.6164 17.3847,-12.5976 0.4088,-1.288 0.071,-2.6581 -0.8945,-3.6231 -1.402,-1.4021 -2.2601,-1.1899 -8.9102,2.1856 -8.1845,4.1542 -16.4292,5.1675 -21.2129,2.6074 -7.0773,-3.7878 -9.8723,-17.1905 -7.1953,-34.4961 1.7468,-11.2928 4.5516,-18.8848 9.2579,-25.0547 2.508,-3.2885 3.0723,-3.5411 7.3124,-3.2656 4.1368,0.2687 4.6241,0.5637 4.9004,2.9511 0.1688,1.4583 -0.376,5.2658 -1.2109,8.4629 -1.382,5.2922 -1.3721,5.9748 0.1055,7.6075 1.3642,1.5074 15.5569,6.7773 18.2519,6.7773 1.992,0 5.3211,-7.777 5.7793,-13.5 0.4443,-5.5493 0.2275,-6.3684 -2.8769,-10.9062 -2.2333,-3.2648 -5.0285,-5.7743 -8.3555,-7.5 -4.5368,-2.3533 -6.0698,-2.5938 -16.5527,-2.5938 z m -92.8985,10.332 c 2.2755,-0.196 4.8337,0.1732 7.3574,1.1328 2.9381,1.117 2.9728,1.2529 1.5684,6.0411 -2.0819,7.098 -5.8176,27.7371 -6.4258,35.4941 -0.9696,12.3672 -1.4592,14.3952 -3.8457,15.957 -1.2118,0.7931 -4.0545,1.7367 -6.3164,2.0977 -3.4949,0.5578 -4.4344,0.3092 -6.2656,-1.6563 -3.3796,-3.6276 -4.4332,-9.2922 -3.7012,-19.8984 1.1427,-16.5552 5.9116,-31.2625 11.9707,-36.9141 1.3903,-1.2968 3.3828,-2.0578 5.6582,-2.2539 z"
         style="fill:#080222;fill-opacity:1"
         id="path1" />
      <g
         id="g2"
         transform="translate(-137.5,787.5)">
        <g
           id="g23">
          <path
             id="path2"
             style="fill:#080222;fill-opacity:1"
             d="m 1349.0312,534.86801 c -3.1469,-0.12684 -6.0698,-0.11917 -8.5312,0.0508 -21.1544,1.46058 -41.1048,10.46884 -52.873,23.87305 l -5.5704,6.34375 -4.2773,-0.85547 c -2.3533,-0.4705 -10.1293,-1.13529 -17.2793,-1.47656 -15.4312,-0.73654 -22.9844,0.55828 -36.2461,6.21289 -4.8144,2.05282 -10.3289,3.72283 -12.2539,3.71093 -1.925,-0.0119 -9.575,-0.99046 -17,-2.17382 -39.7539,-6.33582 -72.8334,0.65183 -87.7188,18.52929 -5.0092,6.01644 -6.423,8.79807 -9.5624,18.81055 -2.1892,6.98084 -2.6679,11.24858 -3.7637,33.5 -0.6908,14.025 -1.5493,26.32223 -1.9063,27.32617 -0.5733,1.61182 -1.2286,1.33901 -5.5996,-2.32422 -4.9109,-4.11566 -19.8529,-12.21871 -29.6543,-16.08203 -7.6848,-3.02907 -27.0627,-7.77676 -36.1992,-8.86914 -27.6829,-3.30986 -48.34507,-1.88739 -74.0957,5.10352 -12.75735,3.46343 -36.4745,14.61837 -43.63672,20.52343 -6.77607,5.58669 -18.77868,14.7785 -19.7168,15.09961 -0.44539,0.15245 -0.90631,-10.74254 -1.02343,-24.21093 -0.22422,-25.78257 -0.96327,-31.39448 -5.25586,-39.84766 -2.79765,-5.50928 -14.06877,-16.50326 -20.38672,-19.88672 C 845.86758,592.54192 809.92604,581.57171 795,579.45981 c -4.125,-0.58365 -10.65,-1.57417 -14.5,-2.20118 -3.87539,-0.63114 -19.05205,-1.18257 -34,-1.23437 -33.07467,-0.11462 -52.94566,2.17391 -73.97852,8.52148 -23.83464,7.19313 -38.52889,14.39665 -54.23242,26.58204 -26.31991,20.42329 -38.96059,49.99708 -36.90625,86.34765 1.47668,26.12906 11.06762,47.47219 29.78711,66.28906 4.30676,4.32917 7.83008,8.04167 7.83008,8.25 0,0.20834 -2.19846,0.37891 -4.88477,0.37891 -7.44031,0 -19.82418,6.55398 -28.19726,14.92188 -10.44681,10.44034 -11.44854,15.07328 -12.44141,57.57812 -0.8261,35.36534 0.15583,47.15647 4.62891,55.54883 4.95982,9.30556 13.10138,17.24186 21.89453,21.3457 11.15547,5.20637 41.02418,14.22912 56.67188,17.11914 20.77048,3.83617 46.57366,7.56329 58.32812,8.42578 67.35665,4.94234 123.34854,-9.52851 155.67383,-40.23437 l 7.41992,-7.04688 3.16406,3.83789 c 4.32586,5.24802 8.05826,8.5425 18.9375,16.71485 10.20178,7.66344 13.5207,9.51771 28.13477,15.72461 32.44924,13.78187 77.00472,15.77524 114.66992,5.1289 16.2159,-4.58355 39.3739,-15.26556 46.7051,-21.54297 l 4.2031,-3.5996 1.5371,2.97265 c 0.8454,1.63487 4.0979,5.73779 7.2266,9.11719 6.2381,6.7379 13.8032,11.11453 27.0449,15.64258 7.3255,2.50497 8.8409,2.65682 25.7832,2.61132 26.6059,-0.0714 38.2908,-1.47009 47.0605,-5.63476 6.3753,-3.02763 7.3612,-3.23906 9.5254,-2.04102 9.5187,5.26923 24.4916,7.61436 48.9141,7.66016 16.4296,0.0308 19.2834,-0.21446 25.5,-2.19336 23.3878,-7.44493 35.1183,-18.57403 40.1152,-38.05664 1.5131,-5.8996 1.602,-12.91961 0.9532,-76 -0.3931,-38.225 -1.0446,-77.15 -1.4473,-86.5 -0.4027,-9.35 -0.6707,-17.11146 -0.5957,-17.24805 0.075,-0.13659 3.0265,0.95801 6.5566,2.4336 5.2723,2.20387 7.8464,2.66422 14.418,2.57812 14.8458,-0.19449 23.6703,-3.52239 36.2266,-13.66601 21.8571,-17.65726 37.0771,-41.91049 42.1074,-67.09766 8.1662,-40.88832 2.01,-70.73154 -19.2324,-93.23633 -7.7129,-8.17132 -19.8108,-16.08242 -28.6016,-18.70312 -7.0687,-2.1073 -18.5275,-3.70542 -27.9688,-4.08594 z m 6.8145,3.74219 c 3.869,0.0849 7.5173,0.49765 10.6543,1.27539 10.0651,2.49543 15.9842,5.99621 24.5273,14.50781 14.5598,14.50612 18.2922,27.34369 16.209,55.74219 -0.9313,12.69588 -1.5852,16.20284 -4.6836,25.0957 -1.981,5.68576 -4.4603,11.98576 -5.5097,14 -6.9602,13.35965 -28.2264,34.40094 -38.0742,37.67188 -4.8277,1.60343 -5.294,1.58727 -12.0372,-0.46094 -7.9554,-2.41636 -11.486,-4.86942 -20.4238,-17.46094 0,0 -3.414,-5.03215 -4.4473,-7.85937 -0.9169,-2.5087 -1.4808,-7.875 -1.4808,-7.875 -1.0588,-5.63085 0.291,-8.10951 2.9199,-10.85352 1.5696,-1.63835 2.6626,-3.12434 2.4277,-3.30078 -0.2349,-0.17643 -2.7561,-1.77983 -5.6015,-3.56445 -2.8454,-1.78462 -6.9836,-5.20977 -9.1973,-7.61133 l -4.0254,-4.36719 -1.0957,3.32031 c -1.819,5.51153 -8.6212,14.06295 -15.0019,18.85938 -5.5095,4.14156 -5.8275,4.58281 -3.7618,5.20508 3.1281,0.94234 8.5687,6.25714 10.7637,10.51367 3.2332,6.26999 3.885,14.42018 5.5078,68.94531 2.2012,73.96019 2.4668,148.84099 0.5508,155.44531 -1.9832,6.83643 -8.7111,13.57894 -16.5664,16.60352 -5.5574,2.1398 -7.5492,2.31425 -27,2.37695 -17.608,0.0568 -21.9692,-0.22717 -27,-1.75781 -12.3742,-3.76488 -17.2503,-8.20206 -19.7734,-18.48438 0,0 -1.1211,-27.64697 -1.562,-35.6016 l 0.1105,-2.62879 c 0.1227,-6.05 0.1336,-34.6532 0.6995,-65.4532 0.5659,-30.8 1.4874,-63.425 2.0469,-72.5 1.9292,-31.29552 3.0591,-43.25617 4.3867,-46.43359 1.675,-4.00881 8.8731,-10.24978 12.8223,-11.11719 l 2.9941,-0.6582 -4.3613,-2.56446 c -5.9823,-3.5163 -9.8793,-6.76666 -13.0235,-10.86914 l -2.6582,-3.4707 -0.5586,7.30664 c -2.1659,28.32146 -2.732,36.70417 -3.7636,55.80664 -1.4438,26.73721 -1.6055,143.47355 -0.9391,154.57422 0.5085,10.34451 1.3395,32.74219 1.3395,32.74219 -2.1096,7.8875 -6.9942,13.77856 -14.6582,17.67578 -2.2995,1.16931 -4.3895,2.90812 -6.8985,3.50781 -7.9758,1.90634 -16.4074,0.2938 -24.6015,-0.0293 -10.1836,-0.40154 -24.8839,-0.14175 -30.4825,-2.37109 -7.2711,-2.89527 -12.4417,-7.45729 -15.6054,-13.76953 -2.3197,-4.62836 -2.438,-5.84605 -2.8418,-29.20313 l -0.4219,-24.37304 -5.5859,10.72656 c -7.1345,13.70262 -17.9152,26.08235 -31.6641,36.36133 -12.1691,9.0979 -22.9509,14.24072 -39.1973,18.69336 -13.7571,3.77041 -40.32676,7.06129 -48.95895,6.06445 -2.83641,-0.32755 -9.46347,-1.04234 -14.72461,-1.58789 -15.38337,-1.59518 -35.07828,-7.19686 -47.88867,-13.6211 -14.97698,-7.51074 -37.7368,-28.39067 -43.28125,-39.70703 -1.12748,-2.30122 -3.77393,-7.2596 -5.88281,-11.01953 l -3.83594,-6.83594 -1.79883,5.10938 c -7.40705,21.03305 -22.235,36.84573 -45.93164,48.98242 -19.14006,9.80295 -38.61181,14.92127 -65,17.08399 -15.44508,1.26585 -33.69937,1.88623 -41,1.39453 -41.33923,-2.78422 -61.8472,-6.5363 -99,-18.11524 -17.82147,-5.55419 -21.67207,-8.00882 -26.32812,-16.7832 -1.89149,-3.5645 -2.15945,-5.95974 -2.45704,-22 -0.18367,-9.9 0.0446,-25.65 0.50782,-35 0.72651,-14.66374 1.16069,-17.65376 3.15429,-21.75977 4.68295,-9.64501 15.89865,-15.6118 25.49805,-13.56445 3.56211,0.75973 6.24544,2.43366 11.47461,7.1582 14.47067,13.07421 20.9705,17.80019 32.60156,23.70118 20.7396,10.52219 43.0751,15.15834 72.69531,15.08984 10.83157,-0.0251 26.90721,-2.05419 32.18946,-4.0625 7.24651,-2.75512 12.06065,-11.27452 9.65429,-17.08398 -1.57614,-3.80514 -4.15393,-5.96516 -13.49023,-11.29688 -9.04232,-5.16382 -27.46458,-12.26335 -57.5,-22.16016 -27.20359,-8.9637 -35.75008,-12.37505 -53,-21.15039 -11.69194,-5.94789 -16.33976,-8.98228 -24,-15.66992 -26.5734,-23.19978 -35.69547,-48.11423 -29.17929,-79.70117 4.09231,-19.83732 13.07352,-33.30492 30.6543,-45.96875 19.10577,-13.76231 42.92579,-22.47408 71.52539,-26.16016 14.14695,-1.82335 55.96145,-1.55664 69.5,0.44336 20.50712,3.02943 31.3278,5.6018 50,11.88867 15.85963,5.33988 20.95284,8.00924 23.95703,12.56055 5.22275,7.91238 5.54311,10.29657 5.53711,41.11133 -0.003,17.37618 -0.42965,30.15122 -1.08398,32.50781 -1.44193,5.19317 -8.96611,13.09085 -14.47657,15.19531 -6.68736,2.55394 -14.45523,1.59088 -19.19336,-2.3789 C 803.5032,679.56971 787.22091,670.36066 773,666.87192 c -8.69997,-2.13431 -25.92265,-4.7382 -32,-4.8379 -15.80342,-0.25919 -37.87736,4.73739 -43.35352,9.8125 -4.88792,4.52998 -3.26239,8.92107 5.11719,13.82032 14.87044,8.69422 32.38865,15.80196 59.73633,24.23633 16.58973,5.11649 42.77717,15.47262 56.36133,22.28906 17.16469,8.61313 33.94278,21.75086 42.63086,33.38086 l 4.24219,5.67969 0.6289,-9.17969 c 1.28987,-18.82589 4.86081,-32.20554 12.85547,-48.17969 23.7587,-47.4723 72.27762,-72.48677 131.09965,-67.58789 44.4835,3.70471 81.5371,28.32345 101.6035,67.50391 2.793,5.45328 5.0933,9.05328 5.1133,8 0.3278,-17.41952 3.6199,-89.52499 4.9824,-109.13868 2.3512,-33.84781 9.9209,-39.12861 54.4824,-38.01172 24.3028,0.60915 27.1521,1.38509 34.4688,9.39063 l 5.0097,5.48047 5.5957,-6.04297 c 8.8815,-9.59305 18.7111,-14.21256 33.3028,-15.65039 13.0313,-1.28407 29.3023,4.07126 38.707,12.74023 3.6714,3.38417 4.416,3.74069 4.416,2.10938 0,-3.63578 4.139,-14.60575 7.4395,-19.71875 4.1107,-6.36797 11.7296,-13.93499 17.4375,-17.31836 7.7649,-4.60271 21.3618,-7.29377 32.9687,-7.03906 z m -0.6797,15.26953 c -1.8763,-0.096 -3.7583,-0.086 -5.6289,0.0273 -12.4706,0.75591 -24.4118,6.08209 -30.4414,14.84571 -7.0638,10.2669 -8.1511,28.5156 -2.4277,40.74609 5.3857,11.50895 12.8225,16.97496 24.7402,18.18359 11.0974,1.12546 11.0082,4.49166 -0.4394,16.55469 -3.8329,4.03882 -6.9688,8.0916 -6.9688,9.00781 0,2.38876 10.0327,15.23225 13.9922,17.91211 4.7489,3.21414 9.0296,1.81079 17.1719,-5.63086 10.4787,-9.57697 20.2979,-26.02787 24.5507,-41.13281 2.9475,-10.46892 4.1255,-29.65457 2.3457,-38.21875 -2.5898,-12.46114 -10.959,-23.98159 -20.666,-28.44727 -5.0257,-2.31208 -10.5994,-3.5595 -16.2285,-3.84765 z m -94.0449,28.82226 c -13.7969,-0.48588 -28.2446,6.18169 -33.3301,16.06641 -3.2891,6.39294 -3.6525,17.75119 -0.7812,24.42578 1.2336,2.86746 3.7111,6.50234 5.5058,8.07813 4.6601,4.09163 13.5732,8.20829 19.7129,9.10351 2.8997,0.42279 5.4965,0.82027 5.7715,0.88477 0.275,0.0645 3.425,-0.35139 7,-0.92383 15.6575,-2.50712 26.0094,-11.21172 28.0195,-23.5625 2.6846,-16.49491 -7.7258,-29.84685 -26.0547,-33.41602 -1.9151,-0.37294 -3.8727,-0.58683 -5.8437,-0.65625 z M 1172,589.05551 c -21.504,-0.0997 -29.851,1.32135 -32.0664,5.46094 -1.577,2.94656 -2.681,11.79943 -3.9043,31.29297 -3.4,54.1784 -6.3709,251.91866 -3.8535,256.48828 1.9427,3.52632 5.7323,5.99108 10.8262,7.04492 2.4742,0.51187 13.498,0.83126 24.498,0.70898 20.9215,-0.23255 23.8833,-0.79538 27.5723,-5.24804 1.6857,-2.03433 1.6974,-9.93098 0.049,-34.41016 -2.5455,-37.79496 -0.1959,-161.60511 3.834,-202 0.5213,-5.225 1.7177,-18.85773 2.6582,-30.29492 1.695,-20.61131 1.6926,-20.81878 -0.2969,-23.5 -3.4162,-4.604 -7.8584,-5.44347 -29.3164,-5.54297 z m -434.33398,7.29297 c -23.16173,0.007 -35.10341,1.36386 -54.66602,6.21289 -25.17543,6.24029 -42.71934,16.52147 -54.65234,32.0293 -5.60398,7.28279 -8.65593,14.1617 -10.72266,24.16015 -4.53173,21.92371 1.56052,41.82303 17.83789,58.25586 16.30491,16.46063 32.72376,24.21209 94.84375,44.7793 38.20764,12.6501 49.67842,18.20745 59.0918,28.62695 5.89329,6.52316 7.97935,12.09932 7.22461,19.32031 -2.18863,20.93967 -26.23715,31.82595 -67.11719,30.38282 -41.03355,-1.44855 -73.81377,-13.8008 -99.85352,-37.62696 -7.8861,-7.21573 -9.26958,-8.0957 -12.72656,-8.0957 -6.91852,0 -7.1702,1.03436 -8.24414,33.86719 -1.08484,33.1664 -0.51109,38.0007 4.94727,41.66797 9.533,6.40486 72.68418,19.07313 106.37109,21.33789 6.875,0.46221 12.95,0.89775 13.5,0.96875 4.64401,0.59964 37.88333,-2.34609 48.13477,-4.26563 44.08669,-8.25506 72.99382,-30.99172 79.30078,-62.375 1.48883,-7.40838 1.30576,-23.7323 -0.33203,-29.70117 -5.73305,-20.894 -21.02944,-37.1381 -47.50782,-50.45117 -11.2685,-5.66569 -34.51021,-14.52541 -63.5957,-24.24024 -44.01552,-14.70158 -59.37575,-22.83628 -65.98633,-34.94531 -3.35975,-6.15426 -3.84366,-13.39182 -1.23242,-18.4414 2.27437,-4.39815 9.69096,-10.87078 15.32813,-13.37891 11.49879,-5.11614 20.40644,-6.46921 42.89062,-6.50781 20.91758,-0.0359 21.0471,-0.022 33,3.36718 15.49456,4.39342 30.33336,11.82958 45.05859,22.57813 6.61507,4.82861 12.66785,8.51953 13.96875,8.51953 3.21895,0 7.22341,-5.16118 7.99414,-10.30078 0.35386,-2.3597 0.4936,-14.93337 0.31055,-27.94141 0,0 -0.63414,-15.92241 -0.33203,-23.65039 0.0645,-1.65023 -2.52052,-3.91783 -3.67019,-5.10344 -4.80577,-4.956 -17.32236,-7.91737 -41.82981,-13.33601 -18.67625,-4.12934 -34.64613,-5.71989 -57.33398,-5.71289 z M 996.5,661.03402 c -18.10517,-0.006 -19.57302,0.14231 -31.1582,3.1543 -6.68677,1.73846 -14.56177,4.10867 -17.5,5.26563 -23.48439,9.24724 -42.50123,26.20405 -53.73047,47.91211 -6.81792,13.18021 -9.88373,22.85173 -12.16992,38.39062 -4.36691,29.68124 -0.76814,56.3147 10.72461,79.39258 15.52004,31.1648 44.90398,50.66823 83.33398,55.31055 3.575,0.43186 14.6,0.63858 24.5,0.45898 23.4881,-0.4261 35.3965,-3.04434 53,-11.64844 13.8869,-6.78753 18.9271,-10.18078 26.3926,-17.77343 15.3379,-15.59901 25.1272,-35.39852 29.2207,-59.10352 1.6447,-9.52711 1.6225,-39.10997 -0.037,-49 -7.65,-45.58601 -35.9696,-77.07432 -79.7676,-88.69141 -13.5796,-3.60191 -14.1229,-3.66196 -32.8086,-3.66797 z m 262.5254,1.1504 c -6.3998,0.0333 -12.8917,0.45469 -16.7227,1.25 -8.0438,1.66989 -9.8457,3.87293 -10.6347,13.00781 -2.0442,23.66897 -3.9051,90.71103 -4.0293,145.13086 l -0.1387,60.67969 2.9121,3.04296 c 1.6584,1.73387 4.6707,3.46215 7,4.01563 2.2488,0.53437 12.6379,0.88171 23.0879,0.77148 18.0485,-0.1904 19.2506,-0.32602 23.9863,-2.69531 3.373,-1.68751 5.1987,-3.30271 5.6485,-4.99414 1.803,-6.77878 0.1336,-143.09806 -2.1797,-178 -0.5651,-8.525 -1.3049,-20.13489 -1.6446,-25.79883 -0.7224,-12.04355 -1.5927,-13.24252 -11.121,-15.33008 -3.4571,-0.75741 -9.7643,-1.11334 -16.1641,-1.08007 z m -264.24806,46.60742 c 2.78335,-0.0135 5.63026,0.16377 8.52926,0.53515 14.1312,1.81033 23.2505,6.40921 32.252,16.26758 15.8461,17.35451 21.2833,46.84664 13.8926,75.35352 -5.6337,21.73005 -21.5402,37.62922 -41.9512,41.93359 -18.92723,3.99147 -36.48987,-1.26998 -50.03125,-14.98828 -10.74828,-10.88872 -15.49439,-22.06523 -17.5957,-41.43945 -2.08986,-19.26851 1.14739,-37.91066 8.84961,-50.95899 10.15021,-17.19546 26.57127,-26.6087 46.05468,-26.70312 z M 996,723.9227 c -10.63702,0.0184 -13.20141,0.34304 -17.21094,2.17382 -10.4319,4.76333 -18.1497,14.1262 -21.98828,26.67774 -2.95239,9.65386 -3.13589,33.67699 -0.33398,43.61914 5.40124,19.16545 14.83684,29.28671 29.79297,31.95508 11.91299,2.12544 26.70883,-0.6438 34.27143,-6.41211 8.3275,-6.35174 15.0506,-21.25475 16.6329,-36.86914 2.2239,-21.94606 -2.3234,-39.61913 -13.1387,-51.05469 C 1016.1006,725.63318 1011.2739,723.8963 996,723.9227 Z" />
        </g>
      </g>
    </g>
  </g>
</svg>
